<?xml version="1.0" encoding="UTF-8"?> <svg xmlns="http://www.w3.org/2000/svg" width="148" height="19" viewBox="0 0 148 19" fill="none"> <path d="M146.656 18.8475H148V17.2997H146.656C146.01 17.2997 145.789 16.9763 145.789 16.228V0.0324764H144.121V16.2455C144.105 18.0654 144.751 18.8475 146.656 18.8475ZM136.518 18.9837C141.553 18.9837 142.335 16.5677 142.335 11.8897C142.335 7.38149 141.62 4.91563 136.551 4.91563C131.703 4.91563 130.768 7.31389 130.768 11.9583C130.784 16.5165 131.516 18.9837 136.518 18.9837ZM123.198 18.9837C128.232 18.9837 129.015 16.5677 129.015 11.8897C129.015 7.38149 128.301 4.91563 123.232 4.91563C118.384 4.91563 117.447 7.31389 117.447 11.9583C117.464 16.5165 118.196 18.9837 123.198 18.9837ZM39.6198 18.8475H44.2306V16.7888H39.6198C37.51 16.7888 37.0341 15.8195 37.0003 14.3742V12.9789H43.3961V10.8866H37.0003V9.54256C37.0166 8.09595 37.4939 7.07534 39.6198 7.07534H44.2306V4.98303H39.6198C36.2345 4.98303 34.6694 6.47957 34.6694 9.37259V14.5267C34.652 17.4697 36.2345 18.8475 39.6198 18.8475ZM11.109 9.37259V14.5267C11.109 17.4697 12.6566 18.865 16.0593 18.865H20.6688V16.7888H16.0593C13.9158 16.7888 13.4223 15.8195 13.4223 14.3742V9.54256C13.4223 8.09595 13.9158 7.07534 16.0593 7.07534H20.6688V4.98303H16.0593C12.6403 4.98303 11.109 6.47957 11.109 9.37259ZM4.76311 7.07534H8.9654V4.98303H4.76311C1.94002 4.98303 0.169972 6.25831 0.169972 8.57304C0.169972 10.2221 0.765751 11.4649 4.25222 12.638C5.91989 13.2338 7.21283 13.6759 7.21283 15.0026C7.21283 16.1767 6.25964 16.7888 4.54205 16.7888H0V18.8475H4.55952C7.99606 18.8475 9.54369 17.1299 9.54369 14.9688C9.54369 12.3831 7.50247 11.6011 5.42648 10.8691C3.45403 10.1721 2.48334 9.67854 2.48334 8.57304C2.48334 7.56875 3.41906 7.07534 4.76311 7.07534ZM98.8367 18.8475H102.715V17.3335H98.8367C94.7032 17.2647 94.5495 15.3948 94.5495 12.6716V11.9921C94.5495 9.15153 94.5332 6.51453 98.9391 6.51453H102.715V4.96672H98.9391C93.9036 4.96672 92.9168 7.55262 92.9168 11.9408V12.6555C92.9168 16.8063 93.8187 18.8475 98.8367 18.8475ZM86.8435 6.47957H90.9094V4.98303H86.8435C83.9516 4.98303 82.6587 6.47957 82.6587 8.43687C82.6587 10.257 83.5268 11.2438 86.691 12.3493C88.7497 13.1489 90.0588 13.6248 90.0588 15.1388C90.0588 16.7039 88.5109 17.2997 86.9794 17.2997H83.0672V18.8475H86.9794C89.8377 18.8475 91.7439 17.4872 91.7439 15.0712C91.7439 12.8253 90.0924 11.9921 87.6603 11.0564C85.4155 10.2057 84.3425 9.72982 84.3425 8.3683C84.3263 7.05903 85.398 6.47957 86.8435 6.47957ZM132.452 11.8897C132.452 9.10024 132.4 6.42945 136.535 6.42945C140.72 6.42945 140.669 9.11656 140.669 11.9583C140.669 14.4929 140.72 17.4872 136.535 17.4872C132.384 17.4872 132.452 14.9688 132.452 11.8897ZM119.132 11.8897C119.132 9.10024 119.081 6.42945 123.214 6.42945C127.399 6.42945 127.349 9.11656 127.349 11.9583C127.349 14.4929 127.399 17.4872 123.214 17.4872C119.063 17.4872 119.132 14.9688 119.132 11.8897ZM106.39 18.8475V7.10914C107.513 6.63322 109.077 6.46325 109.979 6.46325C112.599 6.46325 113.739 7.82477 113.739 10.6143V18.8475H115.406V10.7155C115.406 7.10914 114.079 4.91563 110.099 4.91563C109.231 4.91563 107.614 5.11921 106.39 5.61261V0.0837593H104.723V18.865H106.39V18.8475ZM27.2868 7.07534C28.6472 7.07534 30.23 7.28028 30.23 9.42387C30.23 11.4812 29.0044 12.2132 27.3206 12.2132H24.8373V7.07534H27.2868ZM60.9695 7.34769C61.2929 7.2964 61.9899 7.17771 63.028 7.17771H63.5552C65.8349 7.17771 66.3445 8.18084 66.3445 9.60997V18.8475H68.6417V9.43999C68.6417 8.75933 68.5393 8.16472 68.3694 7.62003C69.1864 7.34769 70.1046 7.17771 71.0064 7.17771H71.4312C73.6771 7.17771 74.238 8.18084 74.238 9.60997V18.8475H76.5352V9.43999C76.5352 6.54814 74.9701 5.08541 71.4312 5.08541H71.0064C69.7136 5.10289 68.2495 5.42516 67.144 5.98616C66.226 5.35775 65.0004 5.08541 63.4528 5.08541H63.028C61.9388 5.08541 60.6796 5.2379 60.2212 5.30647C59.1831 5.47644 58.6722 6.10602 58.6722 7.1952V18.8475H60.9695V7.34769ZM50.9835 19C52.5488 19 54.4375 18.8475 56.3586 17.9631V9.37259C56.3586 6.47957 54.811 4.98303 51.4083 4.98303H46.6289V7.07534H51.4083C53.5519 7.17771 54.0453 8.09595 54.0453 9.54256V10.036H50.9835C47.2074 10.036 45.4548 12.0595 45.4548 14.6627C45.4723 16.8576 46.5265 19 50.9835 19ZM50.9673 16.9588C49.3509 16.9588 47.752 16.5341 47.752 14.6627C47.752 12.9276 48.7888 12.0945 51.086 12.0945H54.0453V16.5503C53.1783 16.8576 52.0041 16.9588 50.9673 16.9588ZM24.8198 18.8475V14.2719H27.3542C27.5079 14.2719 27.6615 14.2719 27.7965 14.2544L30.7908 18.83H33.5977L30.0938 13.6759C31.4541 12.9789 32.441 11.6349 32.441 9.32131C32.441 6.1573 30.451 4.98303 27.3206 4.98303H24.5811C23.1696 4.98303 22.5575 5.63009 22.5575 6.92305V18.8475H24.8198Z" fill="white"></path> </svg> 