<svg xmlns="http://www.w3.org/2000/svg" width="141" height="45" viewBox="0 0 141 45"><g><g><path fill="#fff" d="M43.882 23.341C43.882 35.303 34.058 45 21.94 45 9.823 45 0 35.303 0 23.341c0-1.328.122-2.628.354-3.89a21.777 21.777 0 0 1 1.858-5.754C1.684 13.32.954 12.81.426 12.433 12.367-9.167 43.383-.576 43.863 22.474c.011.288.019.577.019.867zm-15.79-4.005c1.016 1.016 1.297 1.483 1.454 1.655l.53-.19c-1.506-5.768-7.933-9.89-14.655-8.914-7.329 1.17-12.143 7.455-11.572 14.43.224 1.827.73 3.186.93 3.572l.528-.19c0-.278-.179-1.011.11-3.357 1.828-11.358 14.569-15.045 22.675-7.006zm-3.414 9.797c1.44-1.499 1.778-3.72.853-5.522-.857-1.671-2.657-2.702-4.589-2.625-3.102.22-5.55 2.773-5.55 5.891 0 3.262 2.68 5.907 5.984 5.907a6 6 0 0 0 4.918-2.54l-1.616-1.111zm.74-24.783c-7.634-1.894-15.626.941-19.717 7.277l.359.354C21.612.788 39.128 15.433 32.52 29.854c-5.192 10.512-20.264 8.35-20.959-2.285-.115-1.22.182-3.171 1.153-5.128.834-1.61 1.352-2.025 1.504-2.222l-.392-.388c-8.919 5.493-5.037 20.706 8.309 21.359 6.957.086 13.47-3.626 16.636-10.719 4.588-11.22-1.679-23.24-13.353-26.12zm38.085 1.255v9.965c0 3.963-2.451 6.929-6.946 6.929-4.495 0-6.947-2.966-6.947-6.929V5.605h3.654v9.68c0 2.42 1.153 3.797 3.293 3.797 2.139 0 3.293-1.376 3.293-3.796V5.605zm13.588 11.674c0 2.87-2.284 4.935-5.962 4.935h-5.817V5.604h5.6c3.246 0 5.385 1.543 5.385 4.01 0 1.875-.89 3.014-2.211 3.56 1.778.664 3.005 1.874 3.005 4.105zm-8.125-8.495v3.512h1.923c1.13 0 1.899-.64 1.899-1.756 0-1.115-.77-1.756-1.9-1.756zm2.019 10.25c1.562 0 2.452-.711 2.452-2.087 0-1.377-.89-2.088-2.452-2.088h-2.02v4.176zm7.52-13.43h3.655v16.61h-3.654zM90.99 12.32c2.885.996 4.375 2.278 4.375 4.84 0 3.44-2.668 5.339-5.817 5.339-2.908 0-5.144-1.281-6.081-3.654l2.908-2.136c.53 1.495 1.9 2.42 3.27 2.42 1.201 0 2.067-.64 2.067-1.708 0-.996-.65-1.613-3.053-2.467-2.596-.926-4.52-2.207-4.52-4.96 0-2.657 2.236-4.674 5.481-4.674 2.572 0 4.567 1.02 5.505 3.037l-2.909 1.993c-.553-1.233-1.418-1.922-2.74-1.922-1.106 0-1.923.594-1.923 1.448 0 .973.913 1.566 3.437 2.444zm22.506 1.59c0 4.887-3.558 8.589-8.558 8.589-5.12 0-8.557-3.63-8.557-8.02 0-2.847 1.13-4.912 2.788-6.264l-.577-.57c1.274-1.305 3.606-2.325 6.346-2.325 5 0 8.558 3.75 8.558 8.59zm-3.702 0c0-2.99-1.923-5.173-4.856-5.173-1.707 0-2.98.64-3.75 1.471l.577.57c-.89.735-1.682 1.755-1.682 3.582 0 2.515 1.802 4.722 4.855 4.722 2.933 0 4.856-2.183 4.856-5.173zm8.844-4.888v3.844h7.14v2.752h-7.14v6.596h-3.653V5.604h11.514v3.418zm22.363 0h-4.711v13.192h-3.654V9.022H127.9V5.605H141zM60.361 39.794l-1.232-1.216c-.979.816-2.245 1.282-3.713 1.282-3.41 0-5.806-2.565-5.806-6.03 0-3.466 2.397-6.032 5.806-6.032 3.41 0 5.806 2.566 5.806 6.031 0 1.3-.337 2.483-.945 3.432l1.35 1.367zm-4.945-1.366c2.498 0 4.22-1.916 4.22-4.599 0-2.682-1.722-4.598-4.22-4.598-2.498 0-4.22 1.916-4.22 4.598 0 2.683 1.722 4.599 4.22 4.599zm7.865-3.182v-7.248h1.553v7.08c0 2.233 1.249 3.35 3.02 3.35 1.773 0 3.022-1.117 3.022-3.35v-7.08h1.553v7.248c0 2.748-1.756 4.614-4.574 4.614-2.819 0-4.574-1.865-4.574-4.614zm18.616 2.982v1.433h-7.612V27.998h7.51v1.433h-5.957v3.765h5.384v1.266h-5.384v3.766zm-3.021-11.696h-1.367l.86-2.366h1.874zm4.81 1.466h3.578c2.296 0 3.612 1.316 3.612 2.982a2.802 2.802 0 0 1-1.587 2.566c1.165.467 2.043 1.25 2.043 2.816 0 1.866-1.604 3.299-3.95 3.299h-3.696zm3.629 4.998c1.266 0 2.042-.633 2.042-1.782 0-1.15-.776-1.783-2.042-1.783h-2.076v3.565zm.236 5.232c1.367 0 2.228-.833 2.228-2 0-1.166-.86-1.999-2.228-1.999h-2.312v3.999zm12.945 0v1.433h-7.612V27.998h7.511v1.433h-5.958v3.765h5.384v1.266h-5.384v3.766zm1.469-4.399c0-3.565 2.48-6.03 5.738-6.03 2.346 0 3.9.982 4.726 2.665l-1.215.816c-.709-1.333-1.722-2.049-3.46-2.049-2.464 0-4.203 1.883-4.203 4.598 0 2.766 1.62 4.599 4.203 4.599 1.772 0 2.65-.667 3.426-2.133l1.25.866c-.93 1.683-2.38 2.716-4.727 2.7-3.291-.017-5.738-2.466-5.738-6.032z"/></g></g></svg>