<?xml version="1.0" standalone="no"?>
<!DOCTYPE svg PUBLIC "-//W3C//DTD SVG 1.1//EN" "http://www.w3.org/Graphics/SVG/1.1/DTD/svg11.dtd" >
<svg xmlns="http://www.w3.org/2000/svg" xmlns:xlink="http://www.w3.org/1999/xlink" version="1.1">
<metadata>
Haas
</metadata>
<defs>
<font id="Haas" horiz-adv-x="1095" >
  <font-face 
    font-family="Haas"
    font-weight="700"
    font-stretch="normal"
    units-per-em="2048"
    panose-1="2 0 8 3 0 0 0 2 0 4"
    ascent="1638"
    descent="-410"
    x-height="1059"
    cap-height="1462"
    bbox="-133 -446 2234 1884"
    underline-thickness="102"
    underline-position="-204"
    unicode-range="U+0020-25FC"
  />
<missing-glyph horiz-adv-x="748" 
d="M68 0v1365h544v-1365h-544zM136 68h408v1229h-408v-1229z" />
    <glyph glyph-name=".notdef" horiz-adv-x="748" 
d="M68 0v1365h544v-1365h-544zM136 68h408v1229h-408v-1229z" />
    <glyph glyph-name="glyph1" horiz-adv-x="0" 
 />
    <glyph glyph-name="glyph2" horiz-adv-x="682" 
 />
    <glyph glyph-name="space" unicode=" " horiz-adv-x="368" 
 />
    <glyph glyph-name="exclam" unicode="!" horiz-adv-x="428" 
d="M41 152q0 72 51.5 123t122.5 51q69 0 120.5 -52t51.5 -122q0 -65 -51.5 -118.5t-118.5 -53.5q-72 0 -124 51t-52 121zM61 1069v393h304v-393l-80 -631h-146z" />
    <glyph glyph-name="quotedbl" unicode="&#x22;" horiz-adv-x="681" 
d="M41 805v657h219v-657h-219zM422 805v657h219v-657h-219z" />
    <glyph glyph-name="numbersign" unicode="#" horiz-adv-x="1064" 
d="M31 406v184h194l37 254h-170v184h195l57 406h199l-58 -406h199l55 406h199l-55 -406h151v-184h-178l-35 -254h152v-184h-178l-56 -406h-198l55 406h-197l-57 -406h-199l58 406h-170zM424 590h199l34 254h-196z" />
    <glyph glyph-name="dollar" unicode="$" horiz-adv-x="1224" 
d="M41 475h291q-1 -110 60 -180t159 -90v428q-16 7 -66 18q-71 19 -122 37.5t-109 51.5t-94 73.5t-60 103.5t-24 142q0 102 39.5 184.5t106.5 135t151 83t178 35.5v158h121v-158q95 -10 173.5 -40t142 -81.5t101.5 -131.5t44 -183h-291q-1 82 -51 139t-119 57v-362
q40 -10 104 -27q83 -23 148 -54.5t107.5 -63.5t72.5 -73t45 -73.5t23.5 -76.5t10 -70t1.5 -64q0 -39 -13.5 -87t-50 -106.5t-91.5 -106.5t-148 -84t-209 -44v-174h-121v174q-464 35 -510 510zM367 1087q0 -67 42 -103t142 -60v333q-75 0 -129.5 -45t-54.5 -125zM672 205
q87 9 154 60t67 141q0 79 -47.5 118t-173.5 74v-393z" />
    <glyph glyph-name="percent" unicode="%" horiz-adv-x="1576" 
d="M41 1057q0 115 36 204.5t116 145t196 55.5q92 0 159 -32t104.5 -90.5t55 -130t17.5 -160.5q0 -176 -86.5 -280.5t-259.5 -104.5q-338 0 -338 393zM250 1053q0 -31 0.5 -49t4 -50.5t12 -52.5t22 -41.5t37.5 -32t55 -10.5q30 0 53.5 11t38 31t23.5 42t13 51.5t5.5 51
t1.5 47.5q0 258 -127 258q-31 0 -55.5 -12t-39 -34t-24 -46t-13.5 -56.5t-5.5 -55.5t-1.5 -52zM285 -45l848 1524h174l-844 -1524h-178zM852 375q0 177 88 286t260 109q92 0 159 -30.5t104.5 -87t55 -127t17.5 -158.5q0 -177 -87 -286.5t-259 -109.5q-92 0 -159 31
t-105 87.5t-56 127t-18 158.5zM1061 373q0 -31 0.5 -49.5t4 -53t12 -55.5t22 -44t37.5 -34.5t55 -11.5q135 0 135 246q0 245 -127 245q-31 0 -55.5 -11t-39 -31.5t-24 -43t-13.5 -53t-5.5 -53t-1.5 -51.5z" />
    <glyph glyph-name="ampersand" unicode="&#x26;" horiz-adv-x="1411" 
d="M41 410q0 143 92 250t236 174q-70 86 -105 155t-35 156q0 98 55 175.5t141.5 118t184.5 40.5q113 0 202.5 -38.5t144.5 -119.5t55 -193q0 -226 -260 -364l188 -232q39 71 53 175h252q-23 -214 -141 -361l297 -346h-357l-118 145q-177 -174 -412 -174q-133 0 -239.5 51.5
t-170 152.5t-63.5 235zM317 403q0 -79 62.5 -135.5t146.5 -56.5q131 0 246 129l-250 305q-89 -39 -147 -99.5t-58 -142.5zM494 1155q0 -22 6 -44.5t10.5 -36.5t21 -39t21.5 -31.5t29 -35.5t26 -32q76 49 113 93t37 116q0 57 -39.5 98t-93.5 41t-92.5 -36.5t-38.5 -92.5z" />
    <glyph glyph-name="quotesingle" unicode="'" horiz-adv-x="301" 
d="M41 805v657h219v-657h-219z" />
    <glyph glyph-name="parenleft" unicode="(" horiz-adv-x="616" 
d="M102 549q0 241 70.5 501t200.5 447h243q-223 -424 -223 -928q0 -513 221 -942h-241q-129 214 -200 451t-71 471z" />
    <glyph glyph-name="parenright" unicode=")" horiz-adv-x="616" 
d="M0 -373q223 421 223 926q0 512 -221 944h242q129 -215 199.5 -452t70.5 -472q0 -241 -70.5 -501t-199.5 -445h-244z" />
    <glyph glyph-name="asterisk" unicode="*" horiz-adv-x="784" 
d="M20 1139l56 157l231 -90v256h164v-256l238 90l55 -157l-242 -80l152 -201l-135 -100l-152 211l-143 -211l-138 100l152 201z" />
    <glyph glyph-name="plus" unicode="+" horiz-adv-x="1116" 
d="M41 408v219h408v407h219v-407h407v-219h-407v-408h-219v408h-408z" />
    <glyph glyph-name="comma" unicode="," horiz-adv-x="468" 
d="M51 152q0 77 50.5 125.5t123.5 48.5q95 0 144 -64.5t49 -169.5q0 -180 -93 -287t-247 -122v92q92 15 145 70t53 145q-112 -7 -168.5 37t-56.5 125z" />
    <glyph glyph-name="hyphen" unicode="-" horiz-adv-x="698" 
d="M41 434v250h616v-250h-616z" />
    <glyph glyph-name="period" unicode="." horiz-adv-x="448" 
d="M51 152q0 72 51.5 123t122.5 51q69 0 120.5 -52t51.5 -122q0 -65 -51.5 -118.5t-118.5 -53.5q-72 0 -124 51t-52 121z" />
    <glyph glyph-name="slash" unicode="/" horiz-adv-x="804" 
d="M0 -35l571 1532h234l-572 -1532h-233z" />
    <glyph glyph-name="zero" unicode="0" horiz-adv-x="1177" 
d="M41 528q0 254 149 406.5t398 152.5q250 0 399.5 -152.5t149.5 -406.5q0 -253 -149.5 -405t-399.5 -152q-249 0 -398 152.5t-149 404.5zM332 528q0 -109 30 -176l396 451q-62 65 -170 65q-71 0 -122.5 -28.5t-79.5 -78.5t-41 -107.5t-13 -125.5zM414 260q63 -70 174 -70
q72 0 124 28.5t80 78t41 107t13 124.5q0 108 -33 187z" />
    <glyph glyph-name="one" unicode="1" horiz-adv-x="569" 
d="M20 743v136h13q108 0 177.5 47.5t94.5 132.5h213v-1059h-291v743h-207z" />
    <glyph glyph-name="two" unicode="2" horiz-adv-x="1054" 
d="M41 0v82q0 79 24 143t64 107t92.5 77t110 57t115 42.5t110 38t92.5 39t64 49t24 65.5q0 168 -211 168q-99 0 -154 -51t-55 -139v-33h-274v31q0 104 37 184t103.5 129t153 73.5t189.5 24.5q137 0 246 -42t175.5 -129t66.5 -205q0 -74 -28.5 -132t-76.5 -95t-106.5 -65
t-123 -49t-122 -40t-107.5 -44.5t-75 -56.5h639v-229h-973z" />
    <glyph glyph-name="three" unicode="3" horiz-adv-x="1130" 
d="M41 84h291q0 -135 59.5 -209t183.5 -74q109 0 166.5 65t57.5 169q0 100 -61 156.5t-173 56.5h-164v229h164q97 0 146 53.5t49 137.5t-53.5 142t-151.5 58q-205 0 -205 -252v-12h-276v53q0 57 15 114t51 115t89.5 102t137.5 71.5t188 27.5q226 0 353.5 -116t127.5 -303
q0 -203 -207 -299q111 -26 186 -112.5t75 -231.5q0 -190 -136.5 -316.5t-367.5 -126.5q-141 0 -247 37.5t-170.5 106t-96 158.5t-31.5 200z" />
    <glyph glyph-name="four" unicode="4" horiz-adv-x="1255" 
d="M41 0v229l647 830h291v-830h246v-229h-246v-373h-291v373h-647zM260 229h428v553z" />
    <glyph glyph-name="five" unicode="5" horiz-adv-x="1130" 
d="M41 25h291q0 -103 57 -163.5t166 -60.5q123 0 183.5 78.5t60.5 214.5q0 138 -63.5 215.5t-200.5 77.5q-45 0 -86.5 -13.5t-68.5 -32.5t-47.5 -38.5t-30.5 -32.5l-9 -14h-242l105 803h876v-230h-653l-45 -335q4 5 11 12.5t32.5 26.5t55 34t76.5 27t97 12
q118 0 211.5 -39.5t152.5 -109t89.5 -162t30.5 -201.5q0 -110 -31.5 -201.5t-96 -162t-171 -109.5t-246.5 -39q-231 0 -367.5 126.5t-136.5 316.5z" />
    <glyph glyph-name="six" unicode="6" horiz-adv-x="1148" 
d="M41 698q0 799 571 799q79 0 147 -17.5t115 -45.5t84.5 -66.5t60.5 -78.5t38.5 -83.5t22 -79t7.5 -67.5h-268q-2 40 -14.5 76.5t-36 70t-65.5 53t-97 19.5q-53 0 -96 -16t-72 -42.5t-50.5 -66t-33.5 -79.5t-19 -92t-9 -94.5t-2 -94.5h4q110 149 319 149q199 0 330 -132
t131 -341q0 -139 -57.5 -250.5t-175.5 -179.5t-279 -68q-58 0 -107 6t-107.5 25t-105 50.5t-92 87t-76 130t-49 184t-18.5 244.5zM342 457q0 -129 66.5 -198t171.5 -69t172 69.5t67 197.5t-67 197t-172 69t-171.5 -69t-66.5 -197z" />
    <glyph glyph-name="seven" unicode="7" horiz-adv-x="1128" 
d="M41 829v230h1046v-234q-174 -187 -280 -368t-161.5 -374.5t-82.5 -455.5h-293q101 775 551 1202h-780z" />
    <glyph glyph-name="eight" unicode="8" horiz-adv-x="1130" 
d="M41 418q0 145 74.5 238.5t185.5 131.5q-96 34 -151.5 124t-55.5 196q0 76 32 145.5t90.5 124t149 87t199.5 32.5t199.5 -32.5t149 -87t90.5 -124t32 -145.5q0 -106 -55.5 -196t-151.5 -124q111 -38 186 -131.5t75 -238.5q0 -93 -35.5 -174t-101 -142t-166 -96t-222.5 -35
t-222 35t-165.5 96t-101 142t-35.5 174zM332 428q0 -108 56 -173t177 -65t177.5 65t56.5 173t-56.5 174t-177.5 66q-120 0 -176.5 -66t-56.5 -174zM371 1087q0 -84 48.5 -137t145.5 -53q98 0 146.5 53t48.5 137t-49 137.5t-146 53.5t-145.5 -53.5t-48.5 -137.5z" />
    <glyph glyph-name="nine" unicode="9" horiz-adv-x="1148" 
d="M41 590q0 214 136 355.5t376 141.5q58 0 107 -6t107.5 -25t105 -50.5t92 -87t76 -130t49 -184t18.5 -244.5q0 -139 -18 -253t-48.5 -193.5t-75 -140t-92.5 -96t-107.5 -57.5t-113.5 -30t-116 -8q-110 0 -196.5 31t-136.5 76.5t-83.5 105t-45.5 109t-14 96.5h269
q2 -40 14.5 -73.5t36 -63t65.5 -46t97 -16.5q62 0 109.5 19t77.5 55t50 77.5t29 99t12.5 105.5t3.5 109h-4q-110 -149 -319 -149q-199 0 -330 132t-131 341zM330 602q0 -128 67 -197t172 -69t171.5 69t66.5 197t-66.5 197t-171.5 69t-172 -69t-67 -197z" />
    <glyph glyph-name="colon" unicode=":" horiz-adv-x="448" 
d="M51 213q0 72 51.5 123t122.5 51q69 0 120.5 -52t51.5 -122q0 -65 -51.5 -118.5t-118.5 -53.5q-72 0 -124 51t-52 121zM51 836q0 72 51.5 123t122.5 51q69 0 120.5 -52t51.5 -122q0 -65 -51.5 -118.5t-118.5 -53.5q-72 0 -124 51t-52 121z" />
    <glyph glyph-name="semicolon" unicode=";" horiz-adv-x="468" 
d="M51 152q0 77 50.5 125.5t123.5 48.5q95 0 144 -64.5t49 -169.5q0 -180 -93 -287t-247 -122v92q92 15 145 70t53 145q-112 -7 -168.5 37t-56.5 125zM61 836q0 72 52 123t123 51q69 0 120.5 -52t51.5 -122q0 -65 -51.5 -118.5t-118.5 -53.5q-72 0 -124.5 51t-52.5 121z" />
    <glyph glyph-name="less" unicode="&#x3c;" horiz-adv-x="1122" 
d="M41 397v242l1040 414v-236l-751 -299l751 -299v-235z" />
    <glyph glyph-name="equal" unicode="=" horiz-adv-x="1116" 
d="M41 188v220h1034v-220h-1034zM41 627v219h1034v-219h-1034z" />
    <glyph glyph-name="greater" unicode="&#x3e;" horiz-adv-x="1122" 
d="M41 -16v235l752 299l-752 299v236l1040 -414v-242z" />
    <glyph glyph-name="question" unicode="?" horiz-adv-x="1089" 
d="M41 991q5 223 141 364.5t357 141.5q93 0 171.5 -18t133 -49.5t95.5 -70.5t64 -84.5t34.5 -88t11.5 -84.5q0 -71 -13.5 -127t-40.5 -96.5t-52.5 -66t-65.5 -56.5q-8 -6 -43 -31.5t-46 -34.5t-36.5 -32.5t-36.5 -41t-23 -44.5t-16 -56v-78h-277v92q4 64 20.5 115.5t44 90
t53 63.5t61.5 53q5 4 14 11q36 28 53.5 43.5t40 42.5t32 56.5t9.5 67.5q0 92 -45.5 138t-128.5 46q-104 0 -156.5 -74.5t-54.5 -191.5h-301zM371 152q0 72 51.5 123t122.5 51q69 0 120.5 -52t51.5 -122q0 -65 -51.5 -118.5t-118.5 -53.5q-72 0 -124 51t-52 121z" />
    <glyph glyph-name="at" unicode="@" horiz-adv-x="1572" 
d="M41 731q0 159 62 301.5t167 244t248.5 161t300.5 59.5q140 0 269 -45.5t227.5 -125t157.5 -198.5t59 -256q0 -120 -37.5 -223t-94 -169t-124 -113t-125.5 -67.5t-100 -20.5q-64 0 -105.5 32.5t-44.5 83.5h-4q-35 -59 -94 -89t-127 -30q-132 0 -227 104t-95 247
q0 97 32.5 190.5t89.5 167t142 119t183 45.5q74 0 140 -34.5t99 -108.5l33 110h168l-129 -528q-39 -135 18 -135q92 0 167 109t75 267t-74.5 274t-198.5 173t-282 57q-173 0 -305.5 -79.5t-203 -216.5t-70.5 -310q0 -176 77.5 -313t214.5 -211t312 -74q129 0 244.5 44
t195.5 124h172q-104 -158 -268.5 -245t-356.5 -87q-161 0 -306.5 58.5t-251.5 159.5t-168 244t-62 304zM563 653q0 -81 44.5 -131.5t115.5 -50.5q70 0 129.5 48t91 118.5t31.5 142.5q0 74 -46 124t-112 50q-70 0 -130 -47.5t-92 -116t-32 -137.5z" />
    <glyph glyph-name="A" unicode="A" horiz-adv-x="1472" 
d="M20 0l555 1462h330l547 -1462h-334l-110 326h-547l-115 -326h-326zM545 565h379l-185 537h-4z" />
    <glyph glyph-name="B" unicode="B" horiz-adv-x="1316" 
d="M61 0v1462h689q109 0 191.5 -18.5t146 -60t96.5 -112.5t33 -171q0 -209 -199 -305q131 -38 199.5 -135t68.5 -236q0 -107 -43 -190.5t-116.5 -133.5t-164 -75t-192.5 -25h-709zM383 250h344q238 0 238 192q0 108 -61.5 158.5t-170.5 50.5h-350v-401zM383 870h326
q90 0 143 43t53 131q0 50 -17.5 84.5t-50.5 52t-69.5 24.5t-83.5 7h-301v-342z" />
    <glyph glyph-name="C" unicode="C" horiz-adv-x="1443" 
d="M41 725q0 163 49.5 304t139.5 245t227 163.5t303 59.5q163 0 297.5 -60t224.5 -180.5t109 -285.5h-312q-15 109 -107 182.5t-212 73.5q-84 0 -152 -28t-113 -75t-75.5 -112t-44 -136.5t-13.5 -150.5q0 -76 13.5 -145t44 -132.5t75.5 -110t113 -74t152 -27.5
q143 0 228 88.5t104 238.5h311q-25 -273 -199.5 -435.5t-443.5 -162.5q-166 0 -303 59.5t-227 162.5t-139.5 241.5t-49.5 296.5z" />
    <glyph glyph-name="D" unicode="D" horiz-adv-x="1396" 
d="M61 0v1462h631q144 0 264 -45.5t210 -133.5t140 -227t50 -317q0 -161 -41.5 -294.5t-122.5 -233.5t-209 -155.5t-291 -55.5h-631zM383 270h287q73 0 136 24t115.5 73.5t82.5 137t30 204.5q0 115 -21.5 200.5t-69.5 150.5t-131 98.5t-200 33.5h-229v-922z" />
    <glyph glyph-name="E" unicode="E" horiz-adv-x="1222" 
d="M61 0v1462h1094v-270h-772v-313h709v-250h-709v-359h788v-270h-1110z" />
    <glyph glyph-name="F" unicode="F" horiz-adv-x="1130" 
d="M61 0v1462h1029v-270h-707v-338h612v-250h-612v-604h-322z" />
    <glyph glyph-name="G" unicode="G" horiz-adv-x="1460" 
d="M41 725q0 163 49.5 304t139.5 245t227 163.5t303 59.5q152 0 284 -58.5t223.5 -178t108.5 -279.5h-307q-27 119 -109.5 182.5t-199.5 63.5q-84 0 -152 -28t-113 -75t-75.5 -112t-44 -136.5t-13.5 -150.5q0 -76 13.5 -145t44 -132.5t75.5 -110t113 -74t152 -27.5
q156 0 245 81t103 234h-324v240h615v-791h-205l-33 166q-157 -201 -401 -201q-166 0 -303 59.5t-227 162.5t-139.5 241.5t-49.5 296.5z" />
    <glyph glyph-name="H" unicode="H" horiz-adv-x="1357" 
d="M61 0v1462h322v-561h592v561h321v-1462h-321v631h-592v-631h-322z" />
    <glyph glyph-name="I" unicode="I" horiz-adv-x="444" 
d="M61 0v1462h322v-1462h-322z" />
    <glyph glyph-name="J" unicode="J" horiz-adv-x="1071" 
d="M41 418v127h291v-66q0 -118 40 -180.5t146 -62.5q35 0 62.5 8.5t45.5 20.5t30.5 33.5t18.5 38.5t9 46.5t3.5 45.5t0.5 46v987h322v-1001q0 -67 -8.5 -125t-38.5 -129.5t-80.5 -122t-143 -85t-217.5 -34.5q-95 0 -179 26.5t-152.5 79.5t-109 142.5t-40.5 204.5z" />
    <glyph glyph-name="K" unicode="K" horiz-adv-x="1431" 
d="M61 0v1462h322v-606l571 606h402l-572 -577l627 -885h-403l-441 657l-184 -186v-471h-322z" />
    <glyph glyph-name="L" unicode="L" horiz-adv-x="1136" 
d="M61 0v1462h322v-1192h713v-270h-1035z" />
    <glyph glyph-name="M" unicode="M" horiz-adv-x="1697" 
d="M61 0v1462h453l342 -1005h4l324 1005h452v-1462h-301v1036h-4l-358 -1036h-248l-358 1026h-5v-1026h-301z" />
    <glyph glyph-name="N" unicode="N" horiz-adv-x="1357" 
d="M61 0v1462h320l610 -981h4v981h301v-1462h-321l-608 979h-5v-979h-301z" />
    <glyph glyph-name="O" unicode="O" horiz-adv-x="1519" 
d="M41 725q0 163 49.5 304t139.5 245t227 163.5t303 59.5t303 -59.5t227 -163.5t139.5 -245t49.5 -304q0 -158 -49.5 -296.5t-139.5 -241.5t-227 -162.5t-303 -59.5t-303 59.5t-227 162.5t-139.5 241.5t-49.5 296.5zM362 725q0 -76 13.5 -145t44 -132.5t75.5 -110t113 -74
t152 -27.5q104 0 183 41.5t124.5 112.5t67.5 155t22 180q0 79 -13.5 150.5t-43.5 136.5t-75 112t-113 75t-152 28t-152 -28t-113 -75t-75.5 -112t-44 -136.5t-13.5 -150.5z" />
    <glyph glyph-name="P" unicode="P" horiz-adv-x="1257" 
d="M61 0v1462h660q106 0 192.5 -26t144 -70.5t96.5 -105t56 -127t17 -140.5t-17 -140.5t-56 -127t-96.5 -105t-144 -70.5t-192.5 -26h-338v-524h-322zM383 774h250q62 0 108 8.5t88 31t64 67.5t22 112t-22 112t-64 67.5t-88 31t-108 8.5h-250v-438z" />
    <glyph glyph-name="Q" unicode="Q" horiz-adv-x="1519" 
d="M41 725q0 163 49.5 304t139.5 245t227 163.5t303 59.5t303 -59.5t227 -163.5t139.5 -245t49.5 -304q0 -158 -49 -296t-142 -243l182 -166l-149 -157l-207 188q-150 -86 -354 -86q-166 0 -303 59.5t-227 162.5t-139.5 241.5t-49.5 296.5zM362 725q0 -76 13.5 -145
t44 -132.5t75.5 -110t113 -74t152 -27.5q106 0 129 20l-137 125l149 160l166 -152q90 126 90 336q0 79 -13.5 150.5t-43.5 136.5t-75 112t-113 75t-152 28t-152 -28t-113 -75t-75.5 -112t-44 -136.5t-13.5 -150.5z" />
    <glyph glyph-name="R" unicode="R" horiz-adv-x="1351" 
d="M61 0v1462h789q192 0 310 -116.5t118 -286.5q0 -273 -231 -367v-4q193 -50 213 -342q1 -11 3 -61t5 -79t8.5 -73t17 -77t27.5 -56h-322q-17 41 -26 98.5t-14.5 136t-10.5 115.5q-18 119 -71.5 170t-171.5 51h-322v-571h-322zM383 801h352q110 0 165.5 50.5t55.5 158.5
q0 202 -221 202h-352v-411z" />
    <glyph glyph-name="S" unicode="S" horiz-adv-x="1314" 
d="M43 485h311q0 -137 91.5 -203.5t232.5 -66.5q48 0 93 8t91 26.5t73.5 56.5t27.5 91q0 29 -10.5 53.5t-26.5 42.5t-45 35t-54.5 28t-67 23.5t-72 20t-80 19.5t-79.5 20q-62 16 -108.5 32t-100 40t-91.5 55t-70.5 71.5t-49 96t-16.5 121.5q0 108 48 194.5t127 139.5
t174.5 80.5t197.5 27.5q94 0 178.5 -16t159.5 -52.5t129.5 -90.5t86.5 -133.5t32 -178.5h-312q-4 64 -27 108.5t-63.5 68.5t-88 34t-109.5 10q-56 0 -103.5 -15t-83 -54t-35.5 -97q0 -34 11 -56.5t32 -40t73.5 -35.5t112.5 -34.5t172 -45.5l36 -9q128 -33 192 -63
q242 -114 242 -363q0 -208 -159.5 -338.5t-448.5 -130.5q-125 0 -235 31.5t-198.5 93t-139.5 163.5t-50 232z" />
    <glyph glyph-name="T" unicode="T" horiz-adv-x="1239" 
d="M20 1192v270h1199v-270h-439v-1192h-321v1192h-439z" />
    <glyph glyph-name="U" unicode="U" horiz-adv-x="1370" 
d="M61 553v909h322v-909q0 -53 6 -95t25 -85.5t51.5 -72t88 -46.5t130.5 -18q168 0 235.5 75t67.5 242v909h322v-909q0 -291 -163 -439.5t-462 -148.5q-300 0 -461.5 147.5t-161.5 440.5z" />
    <glyph glyph-name="V" unicode="V" horiz-adv-x="1363" 
d="M20 1462h332l326 -1028h4l330 1028h331l-485 -1462h-362z" />
    <glyph glyph-name="W" unicode="W" horiz-adv-x="1961" 
d="M20 1462h322l231 -995h5l253 995h302l249 -1007h4l240 1007h316l-394 -1462h-319l-248 995h-4l-244 -995h-325z" />
    <glyph glyph-name="X" unicode="X" horiz-adv-x="1431" 
d="M20 0l512 766l-471 696h373l287 -467l297 467h352l-469 -698l510 -764h-383l-319 506l-326 -506h-363z" />
    <glyph glyph-name="Y" unicode="Y" horiz-adv-x="1443" 
d="M20 1462h363l342 -577l340 577h358l-542 -901v-561h-322v569z" />
    <glyph glyph-name="Z" unicode="Z" horiz-adv-x="1335" 
d="M51 0v254l785 938h-723v270h1151v-254l-785 -938h805v-270h-1233z" />
    <glyph glyph-name="bracketleft" unicode="[" horiz-adv-x="602" 
d="M61 -373v1870h541v-229h-250v-1411h250v-230h-541z" />
    <glyph glyph-name="backslash" unicode="\" horiz-adv-x="804" 
d="M0 1497h233l572 -1532h-234z" />
    <glyph glyph-name="bracketright" unicode="]" horiz-adv-x="602" 
d="M0 -143h250v1411h-250v229h541v-1870h-541v230z" />
    <glyph glyph-name="asciicircum" unicode="^" horiz-adv-x="1060" 
d="M41 645l352 789h275l352 -789h-240l-250 563l-249 -563h-240z" />
    <glyph glyph-name="underscore" unicode="_" horiz-adv-x="1024" 
d="M0 -154h1024v-102h-1024v102z" />
    <glyph glyph-name="grave" unicode="`" horiz-adv-x="518" 
d="M-61 1481h321l197 -291h-203z" />
    <glyph glyph-name="a" unicode="a" horiz-adv-x="1103" 
d="M41 289q0 69 21 123t53 87t82 56.5t96.5 35t107.5 19.5q30 4 74.5 9.5t72 9.5t62.5 10t56 14.5t41 21.5t29 31.5t9 43.5q0 45 -14 74.5t-42.5 44t-58.5 19.5t-73 5q-178 0 -192 -160h-291q5 79 35.5 141t77.5 101.5t111 65t131 36t142 10.5q465 0 465 -301v-550
q0 -177 37 -236h-295q-17 58 -20 102q-126 -131 -357 -131q-159 0 -259.5 81t-100.5 237zM332 301q0 -135 178 -135q64 0 111 20t70 46.5t36 65t15.5 62t2.5 50.5v108q-17 -15 -47.5 -25.5t-56 -15t-70.5 -10.5t-67 -10q-81 -16 -126.5 -50t-45.5 -106z" />
    <glyph glyph-name="b" unicode="b" horiz-adv-x="1159" 
d="M51 0v1462h291v-532h4q52 78 141 117.5t193 39.5q82 0 158 -33.5t139.5 -99t102 -175.5t38.5 -249q0 -140 -38.5 -250.5t-102 -176t-139.5 -99t-158 -33.5q-260 0 -348 164h-4v-135h-277zM332 528q0 -92 25 -166t83 -123t140 -49q62 0 110.5 28t77.5 75.5t44 107
t15 127.5q0 93 -25 167.5t-82.5 123.5t-139.5 49q-62 0 -111 -28t-78 -75.5t-44 -107.5t-15 -129z" />
    <glyph glyph-name="c" unicode="c" horiz-adv-x="1126" 
d="M41 514q0 254 144.5 413.5t396.5 159.5q95 0 180.5 -25t154.5 -73.5t112 -126.5t50 -176h-284q-13 89 -68.5 135.5t-146.5 46.5q-54 0 -97 -21t-70.5 -55t-46.5 -79.5t-26.5 -92.5t-7.5 -96q0 -48 7.5 -93.5t25.5 -89.5t44.5 -77t68.5 -53.5t95 -20.5q99 0 158.5 58
t73.5 158h280q-27 -208 -162.5 -321.5t-347.5 -113.5q-238 0 -386 152t-148 391z" />
    <glyph glyph-name="d" unicode="d" horiz-adv-x="1169" 
d="M41 539q0 109 30 206.5t87 174t148 122t204 45.5q97 0 181 -40.5t134 -116.5h2v532h291v-1462h-276v135h-4q-97 -164 -322 -164q-93 0 -171.5 31t-134 84.5t-94 126t-57 155t-18.5 171.5zM332 530q0 -65 15 -124t45 -108t80.5 -78.5t115.5 -29.5q70 0 120 28.5t77.5 78
t40 108t12.5 127.5q0 68 -13 125.5t-41 106.5t-78 76.5t-118 27.5q-69 0 -120 -28t-80 -76.5t-42.5 -107t-13.5 -126.5z" />
    <glyph glyph-name="e" unicode="e" horiz-adv-x="1138" 
d="M41 528q0 158 67.5 285t191.5 200.5t282 73.5q105 0 193 -34t149.5 -93.5t102.5 -139.5q41 -78 58 -170q13 -68 13 -140q0 -25 -2 -51h-764q12 -269 260 -269q84 0 149.5 42.5t79.5 95.5h256q-117 -357 -495 -357q-248 0 -394.5 154t-146.5 403zM332 643h473
q-21 114 -75 169.5t-157 55.5q-65 0 -114 -23t-74.5 -59.5t-38 -72t-14.5 -70.5z" />
    <glyph glyph-name="f" unicode="f" horiz-adv-x="743" 
d="M31 864v195h174v82q0 145 90.5 233t263.5 88q29 0 84.5 -3.5t69.5 -4.5v-217q-53 6 -107 6q-59 0 -84.5 -27.5t-25.5 -93.5v-63h200v-195h-200v-864h-291v864h-174z" />
    <glyph glyph-name="g" unicode="g" horiz-adv-x="1142" 
d="M41 563q0 104 30 197.5t85.5 167t143.5 116.5t196 43q219 0 315 -169h4v141h277v-991q0 -42 -4.5 -81t-19.5 -87.5t-38.5 -89.5t-66 -81t-98.5 -68t-138.5 -45t-183.5 -17q-82 0 -160 19.5t-146 59t-112 107t-49 154.5h289q36 -146 217 -146q117 0 176 71q57 70 57 183v8
v140h-4q-45 -80 -131 -122t-186 -42q-115 0 -203.5 41.5t-142 115.5t-80.5 168.5t-27 206.5zM332 567q0 -61 12 -114.5t38 -100.5t73.5 -74.5t111.5 -27.5q118 0 183 85.5t65 207.5q0 68 -12.5 124t-40.5 102.5t-77.5 72.5t-117.5 26q-116 0 -175.5 -86.5t-59.5 -214.5z" />
    <glyph glyph-name="h" unicode="h" 
d="M51 0v1462h291v-551h6q53 85 137.5 130.5t171.5 45.5q113 0 190.5 -30.5t119.5 -90.5t59.5 -135.5t17.5 -179.5v-651h-290v598q0 133 -44 196.5t-143 63.5q-119 0 -172 -71t-53 -232v-555h-291z" />
    <glyph glyph-name="i" unicode="i" horiz-adv-x="393" 
d="M51 0v1059h291v-1059h-291zM51 1223v239h291v-239h-291z" />
    <glyph glyph-name="j" unicode="j" horiz-adv-x="393" 
d="M-125 -125q24 -8 64 -8q52 0 82 19.5t30 74.5v1098h291v-1112q0 -113 -31.5 -180.5t-114 -103.5t-227.5 -36q-32 0 -94 8v240zM51 1223v239h291v-239h-291z" />
    <glyph glyph-name="k" unicode="k" horiz-adv-x="1107" 
d="M51 0v1462h291v-784l367 381h344l-400 -389l445 -670h-353l-290 473l-113 -108v-365h-291z" />
    <glyph glyph-name="l" unicode="l" horiz-adv-x="393" 
d="M51 0v1462h291v-1462h-291z" />
    <glyph glyph-name="m" unicode="m" horiz-adv-x="1720" 
d="M51 0v1059h275v-144h4q120 172 323 172q106 0 187.5 -42.5t122.5 -133.5q50 76 133 126t186 50q180 0 283.5 -91t103.5 -287v-709h-291v600q0 50 -2.5 82t-12.5 69t-28.5 58t-52.5 35t-82 14q-47 0 -82.5 -15.5t-56.5 -40t-33.5 -61t-17 -72t-4.5 -79.5v-590h-291v594
q0 113 -11 154q-28 105 -152 110h-13q-20 0 -42.5 -5t-51 -21.5t-50.5 -42t-37.5 -71t-15.5 -104.5v-614h-291z" />
    <glyph glyph-name="n" unicode="n" 
d="M51 0v1059h277v-148h6q54 86 140.5 131t182.5 45q113 0 190.5 -30.5t119.5 -90.5t59.5 -135.5t17.5 -179.5v-651h-290v598q0 133 -44 196.5t-143 63.5q-119 0 -172 -71t-53 -232v-555h-291z" />
    <glyph glyph-name="o" unicode="o" horiz-adv-x="1177" 
d="M41 528q0 254 149 406.5t398 152.5q250 0 399.5 -152.5t149.5 -406.5q0 -253 -149.5 -405t-399.5 -152q-249 0 -398 152.5t-149 404.5zM332 528q0 -67 13 -124.5t41 -107t79.5 -78t122.5 -28.5q72 0 124 28.5t80 78t41 107t13 124.5q0 68 -13 125.5t-41 107.5t-80 78.5
t-124 28.5q-71 0 -122.5 -28.5t-79.5 -78.5t-41 -107.5t-13 -125.5z" />
    <glyph glyph-name="p" unicode="p" horiz-adv-x="1169" 
d="M51 -373v1432h277v-135h4q101 163 315 163q97 0 177 -30.5t136 -83t94 -125t56 -155.5t18 -175q0 -108 -29.5 -205t-86 -174t-146.5 -122.5t-202 -45.5q-97 0 -181.5 41.5t-136.5 118.5h-4v-504h-291zM332 526q0 -68 13.5 -126t42.5 -106t79.5 -76t118.5 -28
q55 0 99 18.5t72 50t46.5 75t26.5 91t8 101.5q0 66 -14 125t-43 108.5t-79.5 79t-117.5 29.5q-55 0 -99 -19.5t-72 -51.5t-46.5 -76.5t-26.5 -92.5t-8 -102z" />
    <glyph glyph-name="q" unicode="q" horiz-adv-x="1169" 
d="M41 522q0 112 29.5 211.5t86.5 179.5t149.5 127t209.5 47q105 0 190 -39.5t132 -123.5h4v135h276v-1432h-291v506h-4q-48 -81 -139.5 -121.5t-194.5 -40.5q-61 0 -121.5 17.5t-120.5 59t-105 103t-73 157.5t-28 214zM332 528q0 -67 13 -125t41 -107t79 -77.5t119 -28.5
t118.5 27t79.5 75t42.5 106t13.5 126q0 65 -13.5 124t-41.5 109.5t-78 80.5t-115 30q-68 0 -119.5 -28.5t-80.5 -77.5t-43.5 -108t-14.5 -126z" />
    <glyph glyph-name="r" unicode="r" horiz-adv-x="763" 
d="M51 0v1059h277v-197h4q39 99 135 162t203 63q33 0 63 -10v-270q-45 10 -104 10q-77 0 -134 -26.5t-89.5 -74.5t-48 -107t-15.5 -132v-477h-291z" />
    <glyph glyph-name="s" unicode="s" horiz-adv-x="1062" 
d="M41 344h276q1 -89 65 -133.5t159 -44.5q47 0 87.5 11.5t71.5 43.5t31 80q0 26 -15.5 47t-39 35.5t-70.5 29.5t-89.5 25.5t-115.5 26.5q-57 13 -100 26t-89.5 36t-76.5 51.5t-49.5 72t-19.5 97.5q0 97 39 166t107.5 105.5t145 52t168.5 15.5q73 0 135.5 -10t121.5 -34
t102.5 -61.5t72 -96.5t35.5 -135h-276q-10 143 -199 143q-162 0 -162 -98q0 -22 9 -39.5t28.5 -31t39.5 -23t54.5 -19t60 -15t69 -15t69.5 -15.5q58 -13 101 -27t90 -38t76.5 -53.5t49 -75.5t19.5 -103q0 -81 -27.5 -145t-72.5 -105.5t-108.5 -68.5t-131 -38.5t-143.5 -11.5
q-77 0 -145.5 11.5t-132.5 39t-110.5 69.5t-76.5 106.5t-33 146.5z" />
    <glyph glyph-name="t" unicode="t" horiz-adv-x="741" 
d="M31 864v195h176v317h291v-317h213v-195h-213v-524q0 -74 25 -98.5t98 -24.5q49 0 90 8v-227q-61 -10 -170 -10q-58 0 -103.5 6t-90.5 22.5t-74.5 43.5t-47.5 73t-18 107v624h-176z" />
    <glyph glyph-name="u" unicode="u" 
d="M51 408v651h291v-598q0 -133 43.5 -196.5t142.5 -63.5q119 0 172.5 71t53.5 232v555h290v-1059h-276v147h-6q-54 -86 -141 -131t-183 -45q-113 0 -190.5 30.5t-119.5 91t-59.5 136t-17.5 179.5z" />
    <glyph glyph-name="v" unicode="v" horiz-adv-x="1085" 
d="M20 1059h306l223 -723h4l223 723h289l-358 -1059h-324z" />
    <glyph glyph-name="w" unicode="w" horiz-adv-x="1683" 
d="M20 1059h308l194 -719h4l176 719h283l180 -717h4l195 717h299l-334 -1059h-299l-188 711h-4l-181 -711h-301z" />
    <glyph glyph-name="x" unicode="x" horiz-adv-x="1140" 
d="M20 0l381 557l-348 502h332l186 -277l185 277h321l-348 -496l391 -563h-332l-221 334l-221 -334h-326z" />
    <glyph glyph-name="y" unicode="y" horiz-adv-x="1148" 
d="M20 1059h322l266 -725h4l215 725h301l-387 -1116q-20 -59 -36.5 -100.5t-36 -76t-35 -56t-40.5 -38t-45.5 -25t-56 -13.5t-66.5 -6t-83 -1h-178v240h184q76 0 100 55q9 22 9 49q0 41 -23 95z" />
    <glyph glyph-name="z" unicode="z" horiz-adv-x="1054" 
d="M41 0v219l551 621h-510v219h893v-219l-551 -621h590v-219h-973z" />
    <glyph glyph-name="braceleft" unicode="{" horiz-adv-x="761" 
d="M41 473v178q27 0 57.5 10t61 30.5t50 58.5t19.5 86v385q0 66 26 121t65.5 87.5t82 50t78.5 17.5h260v-229h-110q-111 0 -111 -150v-311q0 -57 -16 -101.5t-37.5 -68.5t-52.5 -41t-52 -22.5t-45 -8.5v-6q28 -3 58.5 -14.5t65 -35t57 -69.5t22.5 -106v-328q0 -30 4 -53
t14.5 -46.5t34 -36.5t58.5 -13h110v-230h-260q-36 0 -78.5 18t-82 50.5t-65.5 87.5t-26 121v399q0 36 -13.5 65.5t-34 48.5t-46 32t-49.5 18.5t-45 5.5z" />
    <glyph glyph-name="bar" unicode="|" horiz-adv-x="342" 
d="M61 -35v1532h220v-1532h-220z" />
    <glyph glyph-name="braceright" unicode="}" horiz-adv-x="761" 
d="M20 -143h111q35 0 58.5 13t34 36.5t14.5 46.5t4 53v328q0 49 15.5 88.5t38 63.5t51.5 40.5t52.5 23.5t44.5 9v6q-24 3 -45 8.5t-52 22.5t-52.5 41t-37 68.5t-15.5 101.5v311q0 150 -111 150h-111v229h261q36 0 78 -17.5t81.5 -50t65.5 -87.5t26 -121v-385q0 -48 20 -86
t50.5 -58.5t61 -30.5t57.5 -10v-178q-38 0 -79 -15.5t-75.5 -56t-34.5 -98.5v-399q0 -66 -26 -121t-65.5 -87.5t-81.5 -50.5t-78 -18h-261v230z" />
    <glyph glyph-name="asciitilde" unicode="~" horiz-adv-x="1036" 
d="M41 520q92 176 256 176q82 0 227 -65q14 -6 44.5 -20t47.5 -21t40.5 -16t42 -13t34.5 -4q29 0 55 11.5t49.5 36.5t38 45t37.5 55l82 -191q-23 -32 -38.5 -52t-41 -46.5t-49.5 -41t-57 -25.5t-70 -11q-84 0 -209 68q-127 71 -235 71q-105 0 -172 -147z" />
    <glyph glyph-name="uni00A0" unicode="&#xa0;" horiz-adv-x="368" 
 />
    <glyph glyph-name="cent" unicode="&#xa2;" horiz-adv-x="1155" 
d="M41 512q0 240 128.5 397.5t360.5 177.5v175h121v-175q85 -1 165.5 -30t145 -79.5t105 -127.5t43.5 -166h-285q-6 73 -55.5 125.5t-118.5 58.5v-678q74 13 125 80t53 146h285q-17 -192 -144.5 -311t-318.5 -134v-207h-121v207q-144 9 -256 82.5t-172.5 193.5t-60.5 265z
M332 541q0 -58 9.5 -110t31 -101.5t62 -86t95.5 -53.5v676q-52 -14 -91.5 -47t-62 -78t-33.5 -95t-11 -105z" />
    <glyph glyph-name="sterling" unicode="&#xa3;" horiz-adv-x="1220" 
d="M61 633v174h132q-36 45 -64.5 122.5t-28.5 160.5q0 82 34.5 155t98.5 129.5t165.5 89.5t226.5 33q235 0 366.5 -133t130.5 -379h-276q-8 110 -34 163q-53 109 -189 109q-90 0 -145.5 -51t-55.5 -137q0 -39 3.5 -64.5t22.5 -77t58 -120.5h272v-174h-215q17 -58 17 -127
q0 -89 -44.5 -156.5t-123.5 -130.5l4 -4q76 47 139 47q45 0 162 -22q110 -25 160 -25q48 0 88.5 17t91.5 71l123 -207q-137 -131 -320 -131q-118 0 -223 37q-3 1 -17.5 6t-18 6t-17 5.5t-19 6t-18 4.5t-20.5 4.5t-20.5 3.5t-23 3t-23.5 1.5t-26 0.5q-133 0 -235 -78
l-127 191q100 64 165.5 150.5t65.5 189.5q0 61 -39 137h-203z" />
    <glyph glyph-name="yen" unicode="&#xa5;" horiz-adv-x="1241" 
d="M20 1462h334l271 -637l264 637h332l-318 -637h195v-194h-293l-31 -60v-94h324v-194h-324v-283h-311v283h-322v194h322v94l-29 60h-293v194h195z" />
    <glyph glyph-name="dieresis" unicode="&#xa8;" horiz-adv-x="530" 
d="M-84 1223v239h277v-239h-277zM338 1223v239h276v-239h-276z" />
    <glyph glyph-name="copyright" unicode="&#xa9;" horiz-adv-x="1654" 
d="M41 526q0 170 64.5 315.5t172.5 243t250.5 152.5t298.5 55t298.5 -55t251 -152.5t173 -243t64.5 -315.5t-64.5 -315t-173 -243t-251 -153t-298.5 -55t-298.5 55t-250.5 153t-172.5 243t-64.5 315zM250 526q0 -171 77 -309.5t209 -215.5t291 -77q118 0 224 45.5t184 124.5
t124 191.5t46 240.5t-46 241t-124 191.5t-184 124t-224 45.5q-119 0 -225.5 -45.5t-184 -124t-122.5 -191t-45 -241.5zM416 530q0 202 118 330.5t318 128.5q146 0 248 -83t123 -234h-160q-15 71 -72.5 112t-138.5 41q-114 0 -177 -80t-63 -210q0 -124 67.5 -209.5
t176.5 -85.5q85 0 141.5 43t65.5 116h166q-24 -150 -128.5 -236.5t-244.5 -86.5q-196 0 -318 129.5t-122 324.5z" />
    <glyph glyph-name="guillemotleft" unicode="&#xab;" horiz-adv-x="819" 
d="M41 420v276l321 252v-246l-184 -145l184 -147v-246zM457 420v276l321 252v-246l-184 -145l184 -147v-246z" />
    <glyph glyph-name="uni00AD" unicode="&#xad;" horiz-adv-x="698" 
d="M41 434v250h616v-250h-616z" />
    <glyph glyph-name="registered" unicode="&#xae;" horiz-adv-x="1654" 
d="M41 528q0 170 64.5 315t172.5 242t250.5 152t298.5 55t298.5 -55t251 -152t173 -242t64.5 -315t-64.5 -316t-173 -244t-251 -153t-298.5 -55t-298.5 55t-250.5 153t-172.5 244t-64.5 316zM250 528q0 -129 45 -241.5t122.5 -192t184 -125t225.5 -45.5q118 0 224 45.5
t184 124.5t124 192t46 242q0 128 -46 240t-124 190.5t-184 124t-224 45.5q-119 0 -225.5 -45t-184 -124t-122.5 -191t-45 -240zM522 100v858h324q168 0 252 -59t84 -194q0 -112 -61.5 -167t-164.5 -63l230 -375h-178l-209 367h-107v-367h-170zM692 600h152q83 0 125.5 23.5
t42.5 95.5q0 106 -176 106h-144v-225z" />
    <glyph glyph-name="acute" unicode="&#xb4;" horiz-adv-x="530" 
d="M111 1190l196 291h322l-316 -291h-202z" />
    <glyph glyph-name="cedilla" unicode="&#xb8;" horiz-adv-x="530" 
d="M25 -401l43 98q88 -37 172 -37q82 0 82 70q0 65 -82 65q-42 0 -82 -14l-43 49l121 174h100l-80 -113h4q22 11 70 11q76 0 132 -37t56 -107q0 -58 -20 -99t-55 -63t-75 -32t-89 -10q-61 0 -108.5 6.5t-70.5 13.5t-75 25z" />
    <glyph glyph-name="guillemotright" unicode="&#xbb;" horiz-adv-x="819" 
d="M41 164v246l184 147l-184 145v246l321 -252v-276zM457 164v246l184 147l-184 145v246l321 -252v-276z" />
    <glyph glyph-name="circumflex" unicode="&#x2c6;" horiz-adv-x="530" 
d="M-94 1190l227 291h266l226 -291h-240l-127 166l-131 -166h-221z" />
    <glyph glyph-name="ring" unicode="&#x2da;" horiz-adv-x="530" 
d="M14 1343q0 103 73.5 176.5t176.5 73.5q104 0 178 -73.5t74 -176.5t-74 -176t-178 -73q-103 0 -176.5 73t-73.5 176zM135 1343q0 -61 36 -102t93 -41q58 0 94.5 41t36.5 102t-36.5 102.5t-94.5 41.5q-57 0 -93 -41.5t-36 -102.5z" />
    <glyph glyph-name="tilde" unicode="&#x2dc;" horiz-adv-x="530" 
d="M-111 1212q9 41 19.5 72.5t31 66.5t46.5 58t67.5 38t93.5 15q11 0 23.5 -1.5t21.5 -3.5t23 -6.5t21 -7t22.5 -8.5t20.5 -8q86 -36 135 -36q44 0 66 20t20 51h141q-32 -106 -63 -151q-58 -82 -166 -82q-56 0 -168 35q-96 34 -144 34q-38 0 -57 -21.5t-29 -64.5h-125z" />
    <glyph glyph-name="afii10023" unicode="&#x401;" horiz-adv-x="1222" 
d="M61 0v1462h1094v-270h-772v-313h709v-250h-709v-359h788v-270h-1110zM236 1626v240h276v-240h-276zM657 1626v240h277v-240h-277z" />
    <glyph glyph-name="afii10051" unicode="&#x402;" horiz-adv-x="1554" 
d="M41 1192v270h1198v-270h-438v-342h6q53 85 137.5 130.5t171.5 45.5q113 0 190.5 -30.5t119.5 -90.5t59.5 -135.5t17.5 -179.5v-279q0 -85 -17 -142t-59.5 -98t-115 -60t-181.5 -19q-32 0 -94 8v240q27 -9 64 -9q52 0 82 20t30 75v211q0 133 -43.5 196.5t-142.5 63.5
q-113 0 -167 -64.5t-58 -208.5v-524h-322v1192h-438z" />
    <glyph glyph-name="afii10052" unicode="&#x403;" horiz-adv-x="1136" 
d="M61 0h322v1192h713v270h-1035v-1462zM397 1593l197 291h321l-315 -291h-203z" />
    <glyph glyph-name="afii10054" unicode="&#x405;" horiz-adv-x="1314" 
d="M43 485h311q0 -137 91.5 -203.5t232.5 -66.5q48 0 93 8t91 26.5t73.5 56.5t27.5 91q0 29 -10.5 53.5t-26.5 42.5t-45 35t-54.5 28t-67 23.5t-72 20t-80 19.5t-79.5 20q-62 16 -108.5 32t-100 40t-91.5 55t-70.5 71.5t-49 96t-16.5 121.5q0 108 48 194.5t127 139.5
t174.5 80.5t197.5 27.5q94 0 178.5 -16t159.5 -52.5t129.5 -90.5t86.5 -133.5t32 -178.5h-312q-4 64 -27 108.5t-63.5 68.5t-88 34t-109.5 10q-56 0 -103.5 -15t-83 -54t-35.5 -97q0 -34 11 -56.5t32 -40t73.5 -35.5t112.5 -34.5t172 -45.5l36 -9q128 -33 192 -63
q242 -114 242 -363q0 -208 -159.5 -338.5t-448.5 -130.5q-125 0 -235 31.5t-198.5 93t-139.5 163.5t-50 232z" />
    <glyph glyph-name="afii10055" unicode="&#x406;" horiz-adv-x="444" 
d="M61 0v1462h322v-1462h-322z" />
    <glyph glyph-name="afii10057" unicode="&#x408;" horiz-adv-x="1071" 
d="M41 418v127h291v-66q0 -118 40 -180.5t146 -62.5q35 0 62.5 8.5t45.5 20.5t30.5 33.5t18.5 38.5t9 46.5t3.5 45.5t0.5 46v987h322v-1001q0 -67 -8.5 -125t-38.5 -129.5t-80.5 -122t-143 -85t-217.5 -34.5q-95 0 -179 26.5t-152.5 79.5t-109 142.5t-40.5 204.5z" />
    <glyph glyph-name="afii10059" unicode="&#x40a;" horiz-adv-x="2170" 
d="M61 0v1462h322v-540h592v540h321v-544h338q132 0 232 -37.5t158.5 -103t87 -145.5t28.5 -173t-28.5 -173t-87 -145.5t-158.5 -103t-232 -37.5h-659v651h-592v-651h-322zM1296 250h250q64 0 108.5 7t87.5 27.5t65 64t22 110.5t-22 110.5t-65 64t-87.5 27.5t-108.5 7h-250
v-418z" />
    <glyph glyph-name="afii10060" unicode="&#x40b;" horiz-adv-x="1554" 
d="M41 1192v270h1198v-270h-438v-342h6q53 85 137.5 130.5t171.5 45.5q113 0 190.5 -30.5t119.5 -90.5t59.5 -135.5t17.5 -179.5v-590h-291v537q0 133 -43.5 196.5t-142.5 63.5q-113 0 -167 -64.5t-58 -208.5v-524h-322v1192h-438z" />
    <glyph glyph-name="afii10061" unicode="&#x40c;" horiz-adv-x="1431" 
d="M61 0v1462h322v-606l571 606h402l-572 -577l627 -885h-403l-441 657l-184 -186v-471h-322zM500 1593l196 291h322l-316 -291h-202z" />
    <glyph glyph-name="afii10017" unicode="&#x410;" horiz-adv-x="1472" 
d="M20 0l555 1462h330l547 -1462h-334l-110 326h-547l-115 -326h-326zM545 565h379l-185 537h-4z" />
    <glyph glyph-name="afii10018" unicode="&#x411;" horiz-adv-x="1288" 
d="M61 0v1462h1096v-270h-774v-315h358q106 0 192.5 -25t144 -67t96.5 -99t56 -119t17 -129q0 -85 -28.5 -160.5t-86.5 -139t-158.5 -101t-232.5 -37.5h-680zM383 250h270q50 0 87.5 3.5t76.5 15t63.5 31.5t40 55t15.5 83t-15.5 83t-40 55t-63.5 32t-76.5 15.5t-87.5 3.5
h-270v-377z" />
    <glyph glyph-name="afii10019" unicode="&#x412;" horiz-adv-x="1316" 
d="M61 0v1462h689q109 0 191.5 -18.5t146 -60t96.5 -112.5t33 -171q0 -209 -199 -305q131 -38 199.5 -135t68.5 -236q0 -107 -43 -190.5t-116.5 -133.5t-164 -75t-192.5 -25h-709zM383 250h344q238 0 238 192q0 108 -61.5 158.5t-170.5 50.5h-350v-401zM383 870h326
q90 0 143 43t53 131q0 50 -17.5 84.5t-50.5 52t-69.5 24.5t-83.5 7h-301v-342z" />
    <glyph glyph-name="afii10020" unicode="&#x413;" horiz-adv-x="1136" 
d="M61 0v1462h1035v-270h-713v-1192h-322z" />
    <glyph glyph-name="afii10021" unicode="&#x414;" horiz-adv-x="1626" 
d="M20 270h64q94 0 155 83.5t93.5 277t32.5 506.5v325h1013v-1192h228v-581h-260v311h-1065v-311h-261v581zM518 270h539v922h-412v-176q0 -174 -13 -315t-31.5 -218t-37.5 -128.5t-32 -68.5z" />
    <glyph glyph-name="afii10022" unicode="&#x415;" horiz-adv-x="1222" 
d="M61 0v1462h1094v-270h-772v-313h709v-250h-709v-359h788v-270h-1110z" />
    <glyph glyph-name="afii10024" unicode="&#x416;" horiz-adv-x="2254" 
d="M20 0l596 860l-540 602h381l510 -585v585h321v-585l510 585h381l-543 -602l598 -860h-403l-406 625l-137 -154v-471h-321v471l-140 154l-403 -625h-404z" />
    <glyph glyph-name="afii10025" unicode="&#x417;" horiz-adv-x="1333" 
d="M41 522h311q3 -140 94.5 -213t237.5 -73q144 0 220.5 62.5t76.5 164.5q0 92 -60 130t-171 38h-283v248h278q177 0 177 145q0 92 -70 147.5t-199 55.5q-113 0 -195.5 -56.5t-82.5 -158.5h-312q7 115 57.5 208.5t131.5 153t184 91.5t217 32q262 0 421 -109.5t159 -308.5
q0 -209 -199 -305q135 -39 202 -122t67 -218q0 -74 -24 -142.5t-74.5 -128t-123.5 -103.5t-177.5 -69.5t-229.5 -25.5q-289 0 -456.5 143.5t-176.5 413.5z" />
    <glyph glyph-name="afii10026" unicode="&#x418;" horiz-adv-x="1398" 
d="M61 0v1462h301v-1104h5l579 1104h391v-1462h-301v1102h-4l-577 -1102h-394z" />
    <glyph glyph-name="afii10027" unicode="&#x419;" horiz-adv-x="1398" 
d="M61 0h394l577 1102h4v-1102h301v1462h-391l-579 -1104h-5v1104h-301v-1462zM240 1606v102h919v-102h-919z" />
    <glyph glyph-name="afii10028" unicode="&#x41a;" horiz-adv-x="1431" 
d="M61 0v1462h322v-606l571 606h402l-572 -577l627 -885h-403l-441 657l-184 -186v-471h-322z" />
    <glyph glyph-name="afii10029" unicode="&#x41b;" horiz-adv-x="1472" 
d="M20 0l555 1462h330l547 -1462h-334l-379 1102h-4l-389 -1102h-326z" />
    <glyph glyph-name="afii10030" unicode="&#x41c;" horiz-adv-x="1697" 
d="M61 0v1462h453l342 -1005h4l324 1005h452v-1462h-301v1036h-4l-358 -1036h-248l-358 1026h-5v-1026h-301z" />
    <glyph glyph-name="afii10031" unicode="&#x41d;" horiz-adv-x="1357" 
d="M61 0v1462h322v-561h592v561h321v-1462h-321v631h-592v-631h-322z" />
    <glyph glyph-name="afii10032" unicode="&#x41e;" horiz-adv-x="1519" 
d="M41 725q0 163 49.5 304t139.5 245t227 163.5t303 59.5t303 -59.5t227 -163.5t139.5 -245t49.5 -304q0 -158 -49.5 -296.5t-139.5 -241.5t-227 -162.5t-303 -59.5t-303 59.5t-227 162.5t-139.5 241.5t-49.5 296.5zM362 725q0 -76 13.5 -145t44 -132.5t75.5 -110t113 -74
t152 -27.5q104 0 183 41.5t124.5 112.5t67.5 155t22 180q0 79 -13.5 150.5t-43.5 136.5t-75 112t-113 75t-152 28t-152 -28t-113 -75t-75.5 -112t-44 -136.5t-13.5 -150.5z" />
    <glyph glyph-name="afii10033" unicode="&#x41f;" horiz-adv-x="1337" 
d="M61 0v1462h1215v-1462h-322v1192h-571v-1192h-322z" />
    <glyph glyph-name="afii10034" unicode="&#x420;" horiz-adv-x="1257" 
d="M61 0v1462h660q106 0 192.5 -26t144 -70.5t96.5 -105t56 -127t17 -140.5t-17 -140.5t-56 -127t-96.5 -105t-144 -70.5t-192.5 -26h-338v-524h-322zM383 774h250q62 0 108 8.5t88 31t64 67.5t22 112t-22 112t-64 67.5t-88 31t-108 8.5h-250v-438z" />
    <glyph glyph-name="afii10035" unicode="&#x421;" horiz-adv-x="1443" 
d="M41 725q0 163 49.5 304t139.5 245t227 163.5t303 59.5q163 0 297.5 -60t224.5 -180.5t109 -285.5h-312q-15 109 -107 182.5t-212 73.5q-84 0 -152 -28t-113 -75t-75.5 -112t-44 -136.5t-13.5 -150.5q0 -76 13.5 -145t44 -132.5t75.5 -110t113 -74t152 -27.5
q143 0 228 88.5t104 238.5h311q-25 -273 -199.5 -435.5t-443.5 -162.5q-166 0 -303 59.5t-227 162.5t-139.5 241.5t-49.5 296.5z" />
    <glyph glyph-name="afii10036" unicode="&#x422;" horiz-adv-x="1280" 
d="M41 1192v270h1198v-270h-438v-1192h-322v1192h-438z" />
    <glyph glyph-name="afii10037" unicode="&#x423;" horiz-adv-x="1415" 
d="M20 1462h353l411 -803h4l285 803h332l-438 -1114q-85 -217 -187 -300t-262 -83q-64 0 -121.5 13t-112.5 44.5t-94.5 79.5t-63.5 123.5t-24 171.5v41h301v-30q0 -172 121 -172q82 0 107 112z" />
    <glyph glyph-name="afii10038" unicode="&#x424;" horiz-adv-x="1783" 
d="M31 737q0 99 31.5 187t93.5 159t165.5 112.5t235.5 41.5h174v266h322v-266h174q132 0 235.5 -41.5t165.5 -112.5t93.5 -159t31.5 -187q0 -79 -19.5 -151t-61 -136t-102 -111t-149 -74t-194.5 -27h-174v-238h-322v238h-174q-106 0 -194.5 27t-149 74t-102 111t-61 136
t-19.5 151zM342 737q0 -130 79 -190t204 -60h106v500h-106q-125 0 -204 -60t-79 -190zM1053 487h106q125 0 204 60t79 190t-79 190t-204 60h-106v-500z" />
    <glyph glyph-name="afii10039" unicode="&#x425;" horiz-adv-x="1431" 
d="M20 0l512 766l-471 696h373l287 -467l297 467h352l-469 -698l510 -764h-383l-319 506l-326 -506h-363z" />
    <glyph glyph-name="afii10040" unicode="&#x426;" horiz-adv-x="1523" 
d="M61 0v1462h322v-1192h592v1192h321v-1192h207v-581h-260v311h-1182z" />
    <glyph glyph-name="afii10041" unicode="&#x427;" horiz-adv-x="1316" 
d="M51 952v510h322v-475q0 -44 4 -69.5t17.5 -48t41.5 -31.5t74 -9h424v633h321v-1462h-321v559h-479q-120 0 -198.5 22t-124 72.5t-63.5 121t-18 177.5z" />
    <glyph glyph-name="afii10042" unicode="&#x428;" horiz-adv-x="1882" 
d="M61 0v1462h322v-1192h397v1192h322v-1192h397v1192h322v-1462h-1760z" />
    <glyph glyph-name="afii10043" unicode="&#x429;" horiz-adv-x="2048" 
d="M61 0v1462h322v-1192h397v1192h322v-1192h397v1192h322v-1192h207v-581h-261v311h-1706z" />
    <glyph glyph-name="afii10044" unicode="&#x42a;" horiz-adv-x="1632" 
d="M41 1192v270h717v-524h338q106 0 192.5 -26t144 -70.5t96.5 -105t56 -127t17 -140.5t-17 -140.5t-56 -127t-96.5 -105t-144 -70.5t-192.5 -26h-660v1192h-395zM758 250h250q62 0 108 8.5t88 31t64 67.5t22 112t-22 112t-64 67.5t-88 31t-108 8.5h-250v-438z" />
    <glyph glyph-name="afii10045" unicode="&#x42b;" horiz-adv-x="1673" 
d="M61 0v1462h322v-524h297q106 0 192.5 -26t144 -70.5t96.5 -105t56 -127t17 -140.5t-17 -140.5t-56 -127t-96.5 -105t-144 -70.5t-192.5 -26h-619zM383 250h209q62 0 108 8.5t88 31t64 67.5t22 112t-22 112t-64 67.5t-88 31t-108 8.5h-209v-438zM1290 0v1462h322v-1462
h-322z" />
    <glyph glyph-name="afii10046" unicode="&#x42c;" horiz-adv-x="1257" 
d="M61 0v1462h322v-524h338q106 0 192.5 -26t144 -70.5t96.5 -105t56 -127t17 -140.5t-17 -140.5t-56 -127t-96.5 -105t-144 -70.5t-192.5 -26h-660zM383 250h250q62 0 108 8.5t88 31t64 67.5t22 112t-22 112t-64 67.5t-88 31t-108 8.5h-250v-438z" />
    <glyph glyph-name="afii10047" unicode="&#x42d;" horiz-adv-x="1443" 
d="M41 563h311q19 -150 104 -238.5t228 -88.5q93 0 165.5 33t119 90.5t73 128t35.5 153.5h-610v229h602q-13 77 -40.5 139.5t-71.5 112.5t-111 77.5t-152 27.5q-120 0 -212 -73.5t-107 -182.5h-312q19 165 109 285.5t224.5 180.5t297.5 60q166 0 301 -59.5t224 -164
t136.5 -245t47.5 -303.5q0 -158 -49.5 -296.5t-139.5 -241.5t-227 -162.5t-303 -59.5q-269 0 -443.5 162.5t-199.5 435.5z" />
    <glyph glyph-name="afii10048" unicode="&#x42e;" horiz-adv-x="2009" 
d="M61 0v1462h322v-602h217q18 138 72.5 254.5t139.5 201.5t205.5 133t262.5 48q158 0 289 -59.5t217.5 -163.5t134 -245t47.5 -304q0 -158 -47.5 -296.5t-134 -241.5t-217.5 -162.5t-289 -59.5q-141 0 -261 47.5t-205.5 131.5t-140.5 198t-73 248h-217v-590h-322zM913 725
q0 -96 20.5 -180t62 -155t114.5 -112.5t170 -41.5t170 41.5t114.5 112.5t62 155t20.5 180q0 79 -12 150.5t-40 136.5t-69.5 112t-104.5 75t-141 28t-141 -28t-104.5 -75t-69.5 -112t-40 -136.5t-12 -150.5z" />
    <glyph glyph-name="afii10049" unicode="&#x42f;" horiz-adv-x="1351" 
d="M31 0q16 23 27.5 56t17 77t8.5 73t5 79t3 61q20 292 213 342v4q-231 94 -231 367q0 170 118 286.5t310 116.5h788v-1462h-321v571h-322q-119 0 -172.5 -51t-71.5 -170q-5 -37 -10.5 -115.5t-14.5 -136t-26 -98.5h-321zM395 1010q0 -108 55.5 -158.5t165.5 -50.5h353v411
h-353q-221 0 -221 -202z" />
    <glyph glyph-name="afii10065" unicode="&#x430;" horiz-adv-x="1103" 
d="M41 289q0 69 21 123t53 87t82 56.5t96.5 35t107.5 19.5q30 4 74.5 9.5t72 9.5t62.5 10t56 14.5t41 21.5t29 31.5t9 43.5q0 45 -14 74.5t-42.5 44t-58.5 19.5t-73 5q-178 0 -192 -160h-291q5 79 35.5 141t77.5 101.5t111 65t131 36t142 10.5q465 0 465 -301v-550
q0 -177 37 -236h-295q-17 58 -20 102q-126 -131 -357 -131q-159 0 -259.5 81t-100.5 237zM332 301q0 -135 178 -135q64 0 111 20t70 46.5t36 65t15.5 62t2.5 50.5v108q-17 -15 -47.5 -25.5t-56 -15t-70.5 -10.5t-67 -10q-81 -16 -126.5 -50t-45.5 -106z" />
    <glyph glyph-name="afii10066" unicode="&#x431;" horiz-adv-x="1167" 
d="M41 666q0 112 12 207t32.5 166.5t51.5 129.5t65.5 98.5t79.5 70.5t88 48t95.5 28.5t98.5 14t100 3.5h380v-240h-405q-169 0 -245 -74t-103 -248q4 6 12.5 16.5t38.5 37t66 47t95.5 37t125.5 16.5q105 0 194.5 -34t157.5 -98t106.5 -165.5t38.5 -228.5
q0 -126 -42.5 -227.5t-116.5 -166t-171 -99t-208 -34.5q-91 0 -169 20.5t-149 71t-120.5 128.5t-79 199t-29.5 276zM342 498q0 -139 65.5 -223.5t180.5 -84.5q116 0 182 84.5t66 223.5q0 140 -65.5 223.5t-182.5 83.5q-115 0 -180.5 -83.5t-65.5 -223.5z" />
    <glyph glyph-name="afii10067" unicode="&#x432;" horiz-adv-x="1048" 
d="M51 0v1059h496q215 0 317.5 -75.5t102.5 -211.5q0 -46 -16.5 -85t-39.5 -61.5t-46 -38.5t-39 -22l-17 -6v-20q4 -1 11 -2.5t28 -8.5t39.5 -17t41.5 -29t39.5 -42t28 -58.5t11.5 -76.5q0 -158 -116.5 -231.5t-344.5 -73.5h-496zM342 209h205q170 0 170 119q0 116 -170 116
h-205v-235zM342 633h205q129 0 129 108q0 109 -129 109h-205v-217z" />
    <glyph glyph-name="afii10068" unicode="&#x433;" horiz-adv-x="1062" 
d="M41 340q0 57 19.5 103t49 75.5t76.5 53.5t90 38t101 27q26 6 69.5 15.5t69 15t60 15t54.5 19t39.5 23t28.5 31t9 39.5q0 98 -162 98q-189 0 -199 -143h-276q7 76 35.5 135t72 96.5t102.5 61.5t121.5 34t135.5 10q92 0 168.5 -15.5t145 -52t107.5 -105.5t39 -166
q0 -54 -19.5 -97.5t-49.5 -72t-76.5 -51.5t-89.5 -36t-100 -26q-73 -16 -115.5 -26.5t-89.5 -25.5t-70.5 -29.5t-39 -35.5t-15.5 -47q0 -48 31 -80t71.5 -43.5t87.5 -11.5q94 0 158 44.5t65 133.5h277q-3 -82 -33 -146.5t-76.5 -106.5t-110.5 -69.5t-132.5 -39t-145.5 -11.5
q-76 0 -143.5 11.5t-131 38.5t-108.5 68.5t-72.5 105.5t-27.5 145z" />
    <glyph glyph-name="afii10069" unicode="&#x434;" horiz-adv-x="1142" 
d="M41 563q0 104 30 197.5t85.5 167t143.5 116.5t196 43q219 0 315 -169h4v141h277v-991q0 -42 -4.5 -81t-19.5 -87.5t-38.5 -89.5t-66 -81t-98.5 -68t-138.5 -45t-183.5 -17q-82 0 -160 19.5t-146 59t-112 107t-49 154.5h289q36 -146 217 -146q117 0 176 71.5t57 190.5v140
h-4q-45 -80 -131 -122t-186 -42q-115 0 -203.5 41.5t-142 115.5t-80.5 168.5t-27 206.5zM332 567q0 -61 12 -114.5t38 -100.5t73.5 -74.5t111.5 -27.5q118 0 183 85.5t65 207.5q0 68 -12.5 124t-40.5 102.5t-77.5 72.5t-117.5 26q-116 0 -175.5 -86.5t-59.5 -214.5z" />
    <glyph glyph-name="afii10070" unicode="&#x435;" horiz-adv-x="1138" 
d="M41 528q0 158 67.5 285t191.5 200.5t282 73.5q105 0 193 -34t149.5 -93.5t102.5 -139t58 -171t11 -190.5h-764q12 -269 260 -269q84 0 149.5 42.5t79.5 95.5h256q-117 -357 -495 -357q-248 0 -394.5 154t-146.5 403zM332 643h473q-21 114 -75 169.5t-157 55.5
q-65 0 -114 -23t-74.5 -59.5t-38 -72t-14.5 -70.5z" />
    <glyph glyph-name="afii10072" unicode="&#x436;" horiz-adv-x="1761" 
d="M10 0l439 645l-404 414h344l346 -377v377h291v-377l346 377h344l-405 -414l440 -645h-362l-275 442l-88 -88v-354h-291v354l-88 88l-274 -442h-363z" />
    <glyph glyph-name="afii10073" unicode="&#x437;" 
d="M41 406h281q-2 -100 57.5 -158t173.5 -58q98 0 154.5 36.5t56.5 101.5q0 116 -170 116h-188v189h188q129 0 129 108q0 63 -52.5 95t-138.5 32q-100 0 -148 -51t-46 -131h-285q-1 131 63.5 223t171 135t244.5 43q241 0 361.5 -87.5t120.5 -227.5q0 -46 -16.5 -85
t-39.5 -61.5t-46 -38.5t-40 -22l-16 -6v-20q4 0 11 -1.5t28 -7.5t39.5 -15t41.5 -26.5t39.5 -40t28 -57.5t11.5 -76q0 -162 -132.5 -253t-369.5 -91q-238 0 -369 112t-143 323z" />
    <glyph glyph-name="afii10074" unicode="&#x438;" 
d="M51 408v651h291v-598q0 -133 43.5 -196.5t142.5 -63.5q119 0 172.5 71t53.5 232v555h290v-1059h-276v147h-6q-54 -86 -141 -131t-183 -45q-113 0 -190.5 30.5t-119.5 91t-59.5 136t-17.5 179.5z" />
    <glyph glyph-name="afii10075" unicode="&#x439;" 
d="M51 408v651h291v-598q0 -133 43.5 -196.5t142.5 -63.5q119 0 172.5 71t53.5 232v555h290v-1059h-276v147h-6q-54 -86 -141 -131t-183 -45q-113 0 -190.5 30.5t-119.5 91t-59.5 136t-17.5 179.5zM195 1202v103h706v-103h-706z" />
    <glyph glyph-name="afii10076" unicode="&#x43a;" horiz-adv-x="1107" 
d="M51 0v1059h291v-381l367 381h344l-400 -389l445 -670h-353l-290 473l-113 -108v-365h-291z" />
    <glyph glyph-name="afii10077" unicode="&#x43b;" horiz-adv-x="1126" 
d="M20 0v236q29 -11 52 -11q33 0 54 6.5t46.5 37t39.5 86t24 160t10 253.5v291h829v-1059h-291v829h-288v-223q0 -321 -77.5 -476t-260.5 -155q-61 0 -138 25z" />
    <glyph glyph-name="afii10078" unicode="&#x43c;" horiz-adv-x="1411" 
d="M51 0v1059h438l224 -746h4l205 746h438v-1059h-270v748h-5l-229 -748h-301l-229 737h-4v-737h-271z" />
    <glyph glyph-name="afii10079" unicode="&#x43d;" horiz-adv-x="1075" 
d="M51 0v1059h291v-426h391v426h291v-1059h-291v424h-391v-424h-291z" />
    <glyph glyph-name="afii10080" unicode="&#x43e;" horiz-adv-x="1177" 
d="M41 528q0 254 149 406.5t398 152.5q250 0 399.5 -152.5t149.5 -406.5q0 -253 -149.5 -405t-399.5 -152q-249 0 -398 152.5t-149 404.5zM332 528q0 -67 13 -124.5t41 -107t79.5 -78t122.5 -28.5q72 0 124 28.5t80 78t41 107t13 124.5q0 68 -13 125.5t-41 107.5t-80 78.5
t-124 28.5q-71 0 -122.5 -28.5t-79.5 -78.5t-41 -107.5t-13 -125.5z" />
    <glyph glyph-name="afii10081" unicode="&#x43f;" 
d="M51 0v1059h277v-148h6q54 86 140.5 131t182.5 45q113 0 190.5 -30.5t119.5 -90.5t59.5 -135.5t17.5 -179.5v-651h-290v598q0 133 -44 196.5t-143 63.5q-119 0 -172 -71t-53 -232v-555h-291z" />
    <glyph glyph-name="afii10082" unicode="&#x440;" horiz-adv-x="1169" 
d="M51 -373v1432h277v-135h4q101 163 315 163q97 0 177 -30.5t136 -83t94 -125t56 -155.5t18 -175q0 -108 -29.5 -205t-86 -174t-146.5 -122.5t-202 -45.5q-97 0 -181.5 41.5t-136.5 118.5h-4v-504h-291zM332 526q0 -68 13.5 -126t42.5 -106t79.5 -76t118.5 -28
q55 0 99 18.5t72 50t46.5 75t26.5 91t8 101.5q0 66 -14 125t-43 108.5t-79.5 79t-117.5 29.5q-55 0 -99 -19.5t-72 -51.5t-46.5 -76.5t-26.5 -92.5t-8 -102z" />
    <glyph glyph-name="afii10083" unicode="&#x441;" horiz-adv-x="1126" 
d="M41 514q0 254 144.5 413.5t396.5 159.5q95 0 180.5 -25t154.5 -73.5t112 -126.5t50 -176h-284q-13 89 -68.5 135.5t-146.5 46.5q-54 0 -97 -21t-70.5 -55t-46.5 -79.5t-26.5 -92.5t-7.5 -96q0 -48 7.5 -93.5t25.5 -89.5t44.5 -77t68.5 -53.5t95 -20.5q99 0 158.5 58
t73.5 158h280q-27 -208 -162.5 -321.5t-347.5 -113.5q-238 0 -386 152t-148 391z" />
    <glyph glyph-name="afii10084" unicode="&#x442;" horiz-adv-x="1720" 
d="M51 0v1059h275v-144h4q120 172 323 172q106 0 187.5 -42.5t122.5 -133.5q50 76 133 126t186 50q180 0 283.5 -91t103.5 -287v-709h-291v600q0 50 -2.5 82t-12.5 69t-28.5 58t-52.5 35t-82 14q-47 0 -82.5 -15.5t-56.5 -40t-33.5 -61t-17 -72t-4.5 -79.5v-590h-291v594
q0 113 -11 154q-28 105 -152 110h-13q-20 0 -42.5 -5t-51 -21.5t-50.5 -42t-37.5 -71t-15.5 -104.5v-614h-291z" />
    <glyph glyph-name="afii10085" unicode="&#x443;" horiz-adv-x="1148" 
d="M20 1059h322l266 -725h4l215 725h301l-387 -1116q-20 -59 -36.5 -100.5t-36 -76t-35 -56t-40.5 -38t-45.5 -25t-56 -13.5t-66.5 -6t-83 -1h-178v240h184q76 0 99.5 55.5t-13.5 143.5z" />
    <glyph glyph-name="afii10086" unicode="&#x444;" horiz-adv-x="1679" 
d="M41 518q0 88 12.5 167.5t41.5 154t73 128.5t112 86.5t152 32.5q92 0 146 -33.5t112 -109.5h4v488h291v-488h4q58 76 112 109.5t146 33.5q84 0 152 -32.5t112 -86.5t73 -128.5t41.5 -154t12.5 -167.5q0 -103 -21.5 -197t-64.5 -174t-117.5 -128t-170.5 -48
q-90 0 -154 35.5t-121 104.5h-4v-484h-291v484h-4q-58 -69 -121.5 -104.5t-152.5 -35.5q-78 0 -142 32t-106.5 85t-71.5 124.5t-42 148t-13 157.5zM332 526q0 -336 190 -336q183 0 183 336q0 342 -181 342q-52 0 -90.5 -29t-60 -79.5t-31.5 -108.5t-10 -125zM975 526
q0 -336 182 -336q54 0 92.5 27.5t59.5 76.5t30 106t9 126q0 67 -10 125t-31.5 108.5t-60.5 79.5t-91 29q-54 0 -91 -28t-55.5 -79.5t-26 -107.5t-7.5 -127z" />
    <glyph glyph-name="afii10087" unicode="&#x445;" horiz-adv-x="1140" 
d="M20 0l381 557l-348 502h332l186 -277l185 277h321l-348 -496l391 -563h-332l-221 334l-221 -334h-326z" />
    <glyph glyph-name="afii10088" unicode="&#x446;" horiz-adv-x="1191" 
d="M51 408v651h291v-598q0 -133 43.5 -196.5t142.5 -63.5q119 0 172.5 71t53.5 232v555h290v-1059h-276v147h-6q-54 -86 -141 -131t-183 -45q-113 0 -190.5 30.5t-119.5 91t-59.5 136t-17.5 179.5zM1085 -291v660h86v-660h-86z" />
    <glyph glyph-name="afii10089" unicode="&#x447;" horiz-adv-x="1034" 
d="M41 719v340h291v-307q0 -40 7 -65.5t18 -40.5t36 -22t48 -8.5t67 -1.5h184v445h291v-1059h-291v406h-268q-152 0 -233.5 28.5t-115.5 94.5t-34 190z" />
    <glyph glyph-name="afii10090" unicode="&#x448;" horiz-adv-x="1720" 
d="M51 350v709h291v-600q0 -50 2.5 -82t12.5 -69t28.5 -58t52.5 -35t82 -14q47 0 83 15.5t57 40t33.5 61t17 72t4.5 79.5v590h291v-594q0 -113 11 -154q28 -105 152 -110h13q26 0 55.5 9.5t63 33.5t55.5 75.5t22 124.5v615h291v-1059h-274v143h-4q-120 -172 -324 -172
q-230 0 -309 176q-50 -76 -133.5 -126t-186.5 -50q-179 0 -283 91.5t-104 287.5z" />
    <glyph glyph-name="afii10091" unicode="&#x449;" horiz-adv-x="1816" 
d="M51 350v709h291v-600q0 -50 2.5 -82t12.5 -69t28.5 -58t52.5 -35t82 -14q47 0 83 15.5t57 40t33.5 61t17 72t4.5 79.5v590h291v-594q0 -113 11 -154q28 -105 152 -110h13q26 0 55.5 9.5t63 33.5t55.5 75.5t22 124.5v615h291v-1059h-274v143h-4q-120 -172 -324 -172
q-230 0 -309 176q-50 -76 -133.5 -126t-186.5 -50q-179 0 -283 91.5t-104 287.5zM1710 -291v660h86v-660h-86z" />
    <glyph glyph-name="afii10092" unicode="&#x44a;" horiz-adv-x="1304" 
d="M31 829v230h587v-344h205q219 0 340 -97.5t121 -261.5t-121 -260t-340 -96h-495v829h-297zM618 209h164q211 0 211 147q0 70 -51.5 110t-159.5 40h-164v-297z" />
    <glyph glyph-name="afii10093" unicode="&#x44b;" horiz-adv-x="1382" 
d="M51 0v1059h291v-344h143q219 0 340 -97.5t121 -261.5t-121 -260t-340 -96h-434zM342 209h102q211 0 211 147q0 70 -51.5 110t-159.5 40h-102v-297zM1040 0v1059h291v-1059h-291z" />
    <glyph glyph-name="afii10094" unicode="&#x44c;" horiz-adv-x="1028" 
d="M51 0v1059h291v-344h205q219 0 340 -97.5t121 -261.5t-121 -260t-340 -96h-496zM342 209h164q211 0 211 147q0 70 -51.5 110t-159.5 40h-164v-297z" />
    <glyph glyph-name="afii10095" unicode="&#x44d;" horiz-adv-x="1126" 
d="M41 406h281q14 -100 73 -158t158 -58q102 0 159 69t74 175h-385v209h381q-23 100 -80.5 162.5t-154.5 62.5q-91 0 -146.5 -46.5t-68.5 -135.5h-285q7 98 50 176t112 126.5t155 73.5t181 25q252 0 396 -159.5t144 -413.5q0 -239 -148 -391t-386 -152q-212 0 -347.5 113.5
t-162.5 321.5z" />
    <glyph glyph-name="afii10096" unicode="&#x44e;" horiz-adv-x="1556" 
d="M51 0v1059h291v-406h150q34 201 168 317.5t337 116.5q235 0 377 -153t142 -406q0 -252 -142 -404.5t-377 -152.5q-208 0 -344.5 122.5t-165.5 330.5h-145v-424h-291zM772 528q0 -68 11 -124.5t35 -106.5t70 -78.5t109 -28.5q64 0 110.5 28.5t71 78.5t35.5 106.5t11 124.5
t-11 125.5t-35.5 107.5t-71 78.5t-110.5 28.5q-63 0 -109 -28.5t-70 -78.5t-35 -107.5t-11 -125.5z" />
    <glyph glyph-name="afii10097" unicode="&#x44f;" horiz-adv-x="1058" 
d="M20 0l216 436q-90 41 -137.5 114.5t-47.5 172.5q0 158 120 247t341 89h496v-1059h-291v385h-205h-2l-168 -385h-322zM342 723q0 -129 211 -129h164v256h-164q-211 0 -211 -127z" />
    <glyph glyph-name="afii10071" unicode="&#x451;" horiz-adv-x="1138" 
d="M41 528q0 158 67.5 285t191.5 200.5t282 73.5q105 0 193 -34t149.5 -93.5t102.5 -139t58 -171t11 -190.5h-764q12 -269 260 -269q84 0 149.5 42.5t79.5 95.5h256q-117 -357 -495 -357q-248 0 -394.5 154t-146.5 403zM168 1339q0 72 51.5 123t122.5 51q69 0 120.5 -52
t51.5 -122q0 -65 -51.5 -118.5t-118.5 -53.5q-72 0 -124 51t-52 121zM332 643h473q-21 114 -75 169.5t-157 55.5q-65 0 -114 -23t-74.5 -59.5t-38 -72t-14.5 -70.5zM612 1339q0 72 51.5 123t122.5 51q69 0 120.5 -52t51.5 -122q0 -65 -51.5 -118.5t-118.5 -53.5
q-72 0 -124 51t-52 121z" />
    <glyph glyph-name="afii10100" unicode="&#x453;" horiz-adv-x="1062" 
d="M41 340q0 -81 27.5 -145t72.5 -105.5t108.5 -68.5t131 -38.5t143.5 -11.5q77 0 145.5 11.5t132.5 39t110.5 69.5t76.5 106.5t33 146.5h-277q-1 -89 -65 -133.5t-158 -44.5q-47 0 -87.5 11.5t-71.5 43.5t-31 80q0 26 15.5 47t39 35.5t70.5 29.5t89.5 25.5t115.5 26.5
q57 13 100 26t89.5 36t76.5 51.5t49.5 72t19.5 97.5q0 97 -39 166t-107.5 105.5t-145 52t-168.5 15.5q-73 0 -135.5 -10t-121.5 -34t-102.5 -61.5t-72 -96.5t-35.5 -135h276q10 143 199 143q162 0 162 -98q0 -22 -9 -39.5t-28.5 -31t-39.5 -23t-54.5 -19t-60 -15t-69 -15
t-69.5 -15.5q-58 -13 -101 -27t-90 -38t-76.5 -53.5t-49 -75.5t-19.5 -103zM377 1190l196 291h322l-315 -291h-203z" />
    <glyph glyph-name="afii10101" unicode="&#x454;" horiz-adv-x="1126" 
d="M41 514q0 254 144.5 413.5t396.5 159.5q95 0 180.5 -25t154.5 -73.5t112 -126.5t50 -176h-284q-13 89 -68.5 135.5t-146.5 46.5q-97 0 -155 -63t-81 -162h381v-209h-385q17 -106 74 -175t159 -69q99 0 158.5 58t73.5 158h280q-27 -208 -162.5 -321.5t-347.5 -113.5
q-238 0 -386 152t-148 391z" />
    <glyph glyph-name="afii10102" unicode="&#x455;" horiz-adv-x="1062" 
d="M41 344h276q1 -89 65 -133.5t159 -44.5q47 0 87.5 11.5t71.5 43.5t31 80q0 26 -15.5 47t-39 35.5t-70.5 29.5t-89.5 25.5t-115.5 26.5q-57 13 -100 26t-89.5 36t-76.5 51.5t-49.5 72t-19.5 97.5q0 97 39 166t107.5 105.5t145 52t168.5 15.5q73 0 135.5 -10t121.5 -34
t102.5 -61.5t72 -96.5t35.5 -135h-276q-10 143 -199 143q-162 0 -162 -98q0 -22 9 -39.5t28.5 -31t39.5 -23t54.5 -19t60 -15t69 -15t69.5 -15.5q58 -13 101 -27t90 -38t76.5 -53.5t49 -75.5t19.5 -103q0 -81 -27.5 -145t-72.5 -105.5t-108.5 -68.5t-131 -38.5t-143.5 -11.5
q-77 0 -145.5 11.5t-132.5 39t-110.5 69.5t-76.5 106.5t-33 146.5z" />
    <glyph glyph-name="afii10103" unicode="&#x456;" horiz-adv-x="393" 
d="M51 0v1059h291v-1059h-291zM51 1223v239h291v-239h-291z" />
    <glyph glyph-name="afii10104" unicode="&#x457;" horiz-adv-x="393" 
d="M-133 1223v239h291v-239h-291zM51 0v1059h291v-1059h-291zM236 1223v239h290v-239h-290z" />
    <glyph glyph-name="afii10105" unicode="&#x458;" horiz-adv-x="393" 
d="M-125 -125q24 -8 64 -8q52 0 82 19.5t30 74.5v1098h291v-1112q0 -113 -31.5 -180.5t-114 -103.5t-227.5 -36q-32 0 -94 8v240zM51 1223v239h291v-239h-291z" />
    <glyph glyph-name="afii10110" unicode="&#x45e;" horiz-adv-x="1148" 
d="M20 1059h322l266 -725h4l215 725h301l-387 -1116q-20 -59 -36.5 -100.5t-36 -76t-35 -56t-40.5 -38t-45.5 -25t-56 -13.5t-66.5 -6t-83 -1h-178v240h184q76 0 99.5 55.5t-13.5 143.5zM195 1202v103h809v-103h-809z" />
    <glyph glyph-name="uni2000" unicode="&#x2000;" horiz-adv-x="942" 
 />
    <glyph glyph-name="uni2001" unicode="&#x2001;" horiz-adv-x="1884" 
 />
    <glyph glyph-name="uni2002" unicode="&#x2002;" horiz-adv-x="942" 
 />
    <glyph glyph-name="uni2003" unicode="&#x2003;" horiz-adv-x="1884" 
 />
    <glyph glyph-name="uni2004" unicode="&#x2004;" horiz-adv-x="628" 
 />
    <glyph glyph-name="uni2005" unicode="&#x2005;" horiz-adv-x="471" 
 />
    <glyph glyph-name="uni2006" unicode="&#x2006;" horiz-adv-x="314" 
 />
    <glyph glyph-name="uni2007" unicode="&#x2007;" horiz-adv-x="314" 
 />
    <glyph glyph-name="uni2008" unicode="&#x2008;" horiz-adv-x="235" 
 />
    <glyph glyph-name="uni2009" unicode="&#x2009;" horiz-adv-x="376" 
 />
    <glyph glyph-name="uni200A" unicode="&#x200a;" horiz-adv-x="104" 
 />
    <glyph glyph-name="uni2010" unicode="&#x2010;" horiz-adv-x="698" 
d="M41 434v250h616v-250h-616z" />
    <glyph glyph-name="uni2011" unicode="&#x2011;" horiz-adv-x="698" 
d="M41 434v250h616v-250h-616z" />
    <glyph glyph-name="figuredash" unicode="&#x2012;" horiz-adv-x="698" 
d="M41 434v250h616v-250h-616z" />
    <glyph glyph-name="endash" unicode="&#x2013;" horiz-adv-x="1105" 
d="M41 434v250h1024v-250h-1024z" />
    <glyph glyph-name="emdash" unicode="&#x2014;" horiz-adv-x="1802" 
d="M0 512v102h1802v-102h-1802z" />
    <glyph glyph-name="quoteleft" unicode="&#x2018;" horiz-adv-x="468" 
d="M51 1073q0 180 93 287.5t247 122.5v-92q-92 -15 -145 -70t-53 -145q112 7 168.5 -37t56.5 -125q0 -77 -50.5 -125.5t-123.5 -48.5q-95 0 -144 64t-49 169z" />
    <glyph glyph-name="quoteright" unicode="&#x2019;" horiz-adv-x="468" 
d="M51 1309q0 77 50.5 125.5t123.5 48.5q95 0 144 -64.5t49 -169.5q0 -180 -93 -287t-247 -122v92q92 15 145 70t53 145q-112 -7 -168.5 37t-56.5 125z" />
    <glyph glyph-name="quotesinglbase" unicode="&#x201a;" horiz-adv-x="468" 
d="M51 152q0 77 50.5 125.5t123.5 48.5q95 0 144 -64.5t49 -169.5q0 -180 -93 -287t-247 -122v92q92 15 145 70t53 145q-112 -7 -168.5 37t-56.5 125z" />
    <glyph glyph-name="quotedblleft" unicode="&#x201c;" horiz-adv-x="899" 
d="M51 1073q0 180 93 287.5t247 122.5v-92q-92 -15 -145 -70t-53 -145q112 7 168.5 -37t56.5 -125q0 -77 -50.5 -125.5t-123.5 -48.5q-95 0 -144 64t-49 169zM481 1073q0 180 93 287.5t247 122.5v-92q-92 -15 -145 -70t-53 -145q112 7 168.5 -37t56.5 -125
q0 -77 -50.5 -125.5t-123.5 -48.5q-95 0 -144 64t-49 169z" />
    <glyph glyph-name="quotedblright" unicode="&#x201d;" horiz-adv-x="899" 
d="M51 1309q0 77 50.5 125.5t123.5 48.5q95 0 144 -64.5t49 -169.5q0 -180 -93 -287t-247 -122v92q92 15 145 70t53 145q-112 -7 -168.5 37t-56.5 125zM481 1309q0 77 50.5 125.5t123.5 48.5q95 0 144 -64.5t49 -169.5q0 -180 -93 -287t-247 -122v92q92 16 145.5 70.5
t53.5 144.5q-112 -7 -169 37t-57 125z" />
    <glyph glyph-name="quotedblbase" unicode="&#x201e;" horiz-adv-x="899" 
d="M51 152q0 77 50.5 125.5t123.5 48.5q95 0 144 -64.5t49 -169.5q0 -180 -93 -287t-247 -122v92q92 15 145 70t53 145q-112 -7 -168.5 37t-56.5 125zM481 152q0 77 50.5 125.5t123.5 48.5q95 0 144 -64.5t49 -169.5q0 -180 -93 -287t-247 -122v92q92 16 145.5 70.5
t53.5 144.5q-112 -7 -169 37t-57 125z" />
    <glyph glyph-name="bullet" unicode="&#x2022;" horiz-adv-x="854" 
d="M61 526q0 152 106.5 258.5t258.5 106.5t259.5 -106.5t107.5 -258.5t-107.5 -259t-259.5 -107t-258.5 107t-106.5 259z" />
    <glyph glyph-name="ellipsis" unicode="&#x2026;" horiz-adv-x="1308" 
d="M51 152q0 72 51.5 123t122.5 51q69 0 120.5 -52t51.5 -122q0 -65 -51.5 -118.5t-118.5 -53.5q-72 0 -124 51t-52 121zM481 152q0 72 51.5 123t122.5 51q69 0 120.5 -52t51.5 -122q0 -65 -51.5 -118.5t-118.5 -53.5q-72 0 -124 51t-52 121zM911 152q0 72 51.5 123
t122.5 51q69 0 120.5 -52t51.5 -122q0 -65 -51.5 -118.5t-118.5 -53.5q-72 0 -124 51t-52 121z" />
    <glyph glyph-name="uni202F" unicode="&#x202f;" horiz-adv-x="376" 
 />
    <glyph glyph-name="guilsinglleft" unicode="&#x2039;" horiz-adv-x="403" 
d="M41 420v276l321 252v-246l-184 -145l184 -147v-246z" />
    <glyph glyph-name="guilsinglright" unicode="&#x203a;" horiz-adv-x="403" 
d="M41 164v246l184 147l-184 145v246l321 -252v-276z" />
    <glyph glyph-name="uni205F" unicode="&#x205f;" horiz-adv-x="471" 
 />
    <glyph glyph-name="trademark" unicode="&#x2122;" horiz-adv-x="1794" 
d="M20 1298v164h689v-164h-240v-680h-209v680h-240zM776 618v844h279l211 -555l211 555h276v-844h-197v599h-4l-217 -599h-141l-217 599h-4v-599h-197z" />
    <glyph glyph-name="uni25FC" unicode="&#x25fc;" horiz-adv-x="1054" 
d="M0 0v1055h1055v-1055h-1055z" />
    <glyph glyph-name="afii10077.ss01" horiz-adv-x="1136" 
d="M20 0l392 1059h313l391 -1059h-323l-240 743h-4l-240 -743h-289z" />
    <glyph glyph-name="afii10084.ss01" horiz-adv-x="1720" 
d="M51 0v1059h275v-144h4q120 172 323 172q106 0 187.5 -42.5t122.5 -133.5q50 76 133 126t186 50q180 0 283.5 -91t103.5 -287v-709h-291v600q0 50 -2.5 82t-12.5 69t-28.5 58t-52.5 35t-82 14q-47 0 -82.5 -15.5t-56.5 -40t-33.5 -61t-17 -72t-4.5 -79.5v-590h-291v594
q0 113 -11 154q-28 105 -152 110h-13q-20 0 -42.5 -5t-51 -21.5t-50.5 -42t-37.5 -71t-15.5 -104.5v-614h-291zM51 1202v103h1618v-103h-1618z" />
    <glyph glyph-name="afii10090.ss01" horiz-adv-x="1720" 
d="M51 -143h1618v-103h-1618v103zM51 350v709h291v-600q0 -50 2.5 -82t12.5 -69t28.5 -58t52.5 -35t82 -14q47 0 83 15.5t57 40t33.5 61t17 72t4.5 79.5v590h291v-594q0 -113 11 -154q28 -105 152 -110h13q26 0 55.5 9.5t63 33.5t55.5 75.5t22 124.5v615h291v-1059h-274v143
h-4q-120 -172 -324 -172q-230 0 -309 176q-50 -76 -133.5 -126t-186.5 -50q-179 0 -283 91.5t-104 287.5z" />
    <glyph glyph-name="zero.ss01" horiz-adv-x="1177" 
d="M41 528q0 254 149 406.5t398 152.5q250 0 399.5 -152.5t149.5 -406.5q0 -253 -149.5 -405t-399.5 -152q-249 0 -398 152.5t-149 404.5zM332 528q0 -67 13 -124.5t41 -107t79.5 -78t122.5 -28.5q72 0 124 28.5t80 78t41 107t13 124.5q0 68 -13 125.5t-41 107.5t-80 78.5
t-124 28.5q-71 0 -122.5 -28.5t-79.5 -78.5t-41 -107.5t-13 -125.5z" />
    </font>
</defs>
</svg>
