<?xml version="1.0" encoding="UTF-8"?>
<!DOCTYPE svg  PUBLIC '-//W3C//DTD SVG 1.1//EN'  'http://www.w3.org/Graphics/SVG/1.1/DTD/svg11.dtd' [
	<!ENTITY ns_extend "http://ns.adobe.com/Extensibility/1.0/">
	<!ENTITY ns_ai "http://ns.adobe.com/AdobeIllustrator/10.0/">
	<!ENTITY ns_graphs "http://ns.adobe.com/Graphs/1.0/">
	<!ENTITY ns_vars "http://ns.adobe.com/Variables/1.0/">
	<!ENTITY ns_imrep "http://ns.adobe.com/ImageReplacement/1.0/">
	<!ENTITY ns_sfw "http://ns.adobe.com/SaveForWeb/1.0/">
	<!ENTITY ns_custom "http://ns.adobe.com/GenericCustomNamespace/1.0/">
	<!ENTITY ns_adobe_xpath "http://ns.adobe.com/XPath/1.0/">
]>
<svg enable-background="new 0 0 256.4 250" version="1.1" viewBox="0 0 256.4 250" xml:space="preserve" xmlns="http://www.w3.org/2000/svg">


	<path d="M45.4,0H211c25.1,0,45.4,20.3,45.4,45.4v159.2c0,25.1-20.3,45.4-45.4,45.4H45.4C20.3,250,0,229.7,0,204.6   V45.4C0,20.3,20.3,0,45.4,0z" fill="#001E36"/>
	<g fill="#31A8FF">
		<path d="m134.6 176.7h-67.7c-1.2 0-1.7-0.6-1.7-1.9v-109.2c-0.1-0.7 0.4-1.4 1.2-1.5h0.4 20.9c0.5-0.1 1.2 0.3 1.2 0.9v0.3 89.7h49.4c1.1 0 1.4 0.5 1.2 1.5l-3.1 18.6c0 0.5-0.3 1-0.6 1.3-0.4 0.2-0.8 0.3-1.2 0.3z"/>
		<path d="m151.7 91.2h18.7c1.1 0 1.9 0.7 2.2 1.7 0.4 0.7 0.7 1.6 0.9 2.5 0.2 1.1 0.4 2.2 0.5 3.3 0.1 1.2 0.2 2.5 0.2 3.8 3.2-3.7 7.1-6.8 11.4-9.2 4.9-2.7 10.4-4 15.9-3.8 0.7-0.1 1.4 0.4 1.5 1.2v0.4 20.9c0 0.9-0.5 1.2-1.7 1.2-6.9-0.4-13.9 0.9-20.2 3.6-2.1 1-4.2 2.2-5.8 4v54.5c0 1.1-0.4 1.5-1.4 1.5h-20.8c-0.9 0.1-1.6-0.4-1.7-1.3v-0.4-59.2c0-2.6 0-5.2-0.1-8s-0.1-5.6-0.2-8.3c-0.1-2.4-0.3-4.7-0.6-7.1-0.1-0.5 0.2-1.1 0.7-1.2 0.2-0.2 0.3-0.2 0.5-0.1z"/>
	</g>

</svg>
